<svg width="14" height="14" viewBox="0 0 14 14" fill="none" xmlns="http://www.w3.org/2000/svg">
<path d="M6.02648 10.2467H3.86771C1.70324 10.2467 1.04251 9.58596 1.04251 7.42149V4.00391C1.04251 1.83944 1.70324 1.17871 3.86771 1.17871H9.86556C12.03 1.17871 12.6908 1.83944 12.6908 4.00391C12.6908 4.11721 12.6458 4.22587 12.5656 4.30599C12.4855 4.3861 12.3769 4.43111 12.2636 4.43111C12.1503 4.43111 12.0416 4.3861 11.9615 4.30599C11.8814 4.22587 11.8364 4.11721 11.8364 4.00391C11.8364 2.3293 11.5402 2.03311 9.86556 2.03311H3.86771C2.1931 2.03311 1.89691 2.3293 1.89691 4.00391V7.42149C1.89691 9.09611 2.1931 9.3923 3.86771 9.3923H6.02648C6.13978 9.3923 6.24844 9.43731 6.32856 9.51742C6.40867 9.59754 6.45368 9.70619 6.45368 9.8195C6.45368 9.93279 6.40867 10.0415 6.32856 10.1216C6.24844 10.2017 6.13978 10.2467 6.02648 10.2467Z" fill="#707070"/>
<path d="M6.02589 12.8214C5.91282 12.8206 5.8046 12.7754 5.72464 12.6954C5.64469 12.6155 5.59944 12.5073 5.59869 12.3942V9.81392C5.59944 9.70085 5.64469 9.59262 5.72464 9.51267C5.8046 9.43271 5.91282 9.38747 6.02589 9.38672C6.13896 9.38747 6.24719 9.43271 6.32714 9.51267C6.40709 9.59262 6.45234 9.70085 6.45309 9.81392V12.3942C6.45316 12.4503 6.44217 12.5059 6.42072 12.5578C6.39928 12.6096 6.36782 12.6567 6.32813 12.6964C6.28845 12.7361 6.24133 12.7676 6.18946 12.789C6.1376 12.8105 6.08201 12.8215 6.02589 12.8214Z" fill="#707070"/>
<path d="M6.02648 7.96865H1.46971C1.35664 7.96791 1.24841 7.92266 1.16846 7.84271C1.08851 7.76275 1.04326 7.65452 1.04251 7.54146C1.04326 7.42839 1.08851 7.32016 1.16846 7.24021C1.24841 7.16025 1.35664 7.115 1.46971 7.11426H6.02648C6.13955 7.115 6.24778 7.16025 6.32773 7.24021C6.40769 7.32016 6.45293 7.42839 6.45368 7.54146C6.45293 7.65452 6.40769 7.76275 6.32773 7.84271C6.24778 7.92266 6.13955 7.96791 6.02648 7.96865Z" fill="#707070"/>
<path d="M6.02618 12.8212H4.16929C4.05622 12.8204 3.948 12.7752 3.86804 12.6952C3.78809 12.6153 3.74284 12.5071 3.7421 12.394C3.74284 12.2809 3.78809 12.1727 3.86804 12.0927C3.948 12.0128 4.05622 11.9675 4.16929 11.9668H6.02618C6.13925 11.9675 6.24747 12.0128 6.32743 12.0927C6.40738 12.1727 6.45263 12.2809 6.45338 12.394C6.45263 12.5071 6.40738 12.6153 6.32743 12.6952C6.24747 12.7752 6.13925 12.8204 6.02618 12.8212Z" fill="#707070"/>
<path d="M11.1755 12.8216H9.15343C7.57564 12.8216 7.04022 12.2862 7.04022 10.7084V7.45598C7.04022 5.87819 7.57564 5.34277 9.15343 5.34277H11.1755C12.7533 5.34277 13.2887 5.87819 13.2887 7.45598V10.7084C13.2887 12.2919 12.7533 12.8216 11.1755 12.8216ZM9.15343 6.19717C8.03702 6.19717 7.89462 6.33957 7.89462 7.45598V10.7084C7.89462 11.8248 8.03702 11.9672 9.15343 11.9672H11.1755C12.2919 11.9672 12.4343 11.8248 12.4343 10.7084V7.45598C12.4343 6.33957 12.2919 6.19717 11.1755 6.19717H9.15343Z" fill="#707070"/>
<path d="M10.1835 10.9728C10.0321 10.9733 9.88678 10.9139 9.77904 10.8077C9.72767 10.7553 9.68704 10.6934 9.65943 10.6254C9.63069 10.5548 9.61524 10.4795 9.61386 10.4032C9.61503 10.2539 9.67428 10.1109 9.77904 10.0045C9.84637 9.93831 9.92851 9.88909 10.0186 9.86096C10.1088 9.83283 10.2043 9.82659 10.2974 9.84276L10.3999 9.87694C10.4341 9.89402 10.4683 9.91111 10.4967 9.9282C10.5757 9.97971 10.6405 10.0502 10.6853 10.1331C10.7301 10.2161 10.7534 10.309 10.7531 10.4032C10.7517 10.4795 10.7362 10.5548 10.7075 10.6254C10.6799 10.6934 10.6392 10.7553 10.5879 10.8077C10.5615 10.8353 10.5307 10.8584 10.4967 10.876C10.4665 10.8983 10.4341 10.9174 10.3999 10.933C10.3665 10.9451 10.3322 10.9546 10.2974 10.9614C10.2602 10.9709 10.2218 10.9747 10.1835 10.9728Z" fill="#707070"/>
</svg>
