<svg width="28" height="26" viewBox="0 0 28 26" fill="none" xmlns="http://www.w3.org/2000/svg">
<path d="M25.475 1.93324C24.8426 1.40441 24.1014 1.02131 23.3043 0.81113C22.5071 0.600951 21.6735 0.568855 20.8625 0.71712L16.5628 1.49787C15.5701 1.68017 14.6675 2.1909 14 2.94799C13.3308 2.18959 12.4256 1.67874 11.4305 1.49787L7.1375 0.71712C6.32655 0.568725 5.4929 0.600401 4.69555 0.809905C3.8982 1.01941 3.15665 1.40162 2.52339 1.92948C1.89012 2.45734 1.38063 3.11795 1.03098 3.86454C0.681325 4.61113 0.500055 5.42546 0.5 6.24987L0.5 18.392C0.500065 19.7091 0.962349 20.9845 1.80628 21.9958C2.6502 23.0071 3.82225 23.6901 5.11813 23.9259L12.1899 25.2117C13.3868 25.4292 14.6132 25.4292 15.8101 25.2117L22.8875 23.9259C24.1823 23.6889 25.3531 23.0054 26.1959 21.9942C27.0387 20.9831 27.5002 19.7083 27.5 18.392V6.24987C27.5005 5.42575 27.3193 4.61164 26.9693 3.86554C26.6193 3.11943 26.1091 2.45967 25.475 1.93324ZM12.875 23.0439C12.7805 23.0304 12.686 23.0146 12.5915 22.9977L5.52088 21.713C4.74324 21.5715 4.03992 21.1616 3.53355 20.5547C3.02718 19.9478 2.74988 19.1824 2.75 18.392V6.24987C2.75 5.35476 3.10558 4.49632 3.73852 3.86338C4.37145 3.23045 5.22989 2.87487 6.125 2.87487C6.32873 2.87536 6.53201 2.8938 6.7325 2.92999L11.03 3.71749C11.5471 3.81211 12.0147 4.08478 12.3517 4.48817C12.6887 4.89156 12.8739 5.40022 12.875 5.92587V23.0439ZM25.25 18.392C25.2501 19.1824 24.9728 19.9478 24.4665 20.5547C23.9601 21.1616 23.2568 21.5715 22.4791 21.713L15.4085 22.9977C15.314 23.0146 15.2195 23.0304 15.125 23.0439V5.92587C15.1249 5.39893 15.3098 4.88868 15.6474 4.48408C15.9849 4.07948 16.4538 3.80619 16.9723 3.71187L21.2709 2.92437C21.7577 2.8358 22.258 2.85535 22.7364 2.98164C23.2148 3.10793 23.6596 3.33787 24.0393 3.65518C24.419 3.97248 24.7242 4.36938 24.9334 4.81777C25.1427 5.26616 25.2507 5.75507 25.25 6.24987V18.392Z" fill="white"/>
</svg>
