<svg width="22" height="22" viewBox="0 0 22 22" fill="none" xmlns="http://www.w3.org/2000/svg">
<path d="M15.8445 20.2582C14.7792 20.2376 13.729 20.0032 12.7559 19.5691C11.652 19.0886 10.6045 18.4875 9.63269 17.7767C8.59754 17.0149 7.61778 16.1805 6.7008 15.2798C5.79747 14.3683 4.96289 13.3912 4.20391 12.3564C3.50029 11.3923 2.90513 10.3536 2.42921 9.25898C1.99902 8.27967 1.76817 7.22448 1.75013 6.155C1.74748 5.49745 1.86854 4.84527 2.107 4.23248C2.36495 3.58998 2.76321 3.01323 3.27267 2.54441C3.56277 2.23673 3.91168 1.99043 4.29872 1.82008C4.68576 1.64974 5.10306 1.55883 5.52588 1.55273C5.86547 1.55342 6.20089 1.62762 6.50908 1.77024C6.84804 1.92309 7.13742 2.1678 7.34446 2.47665L9.36283 5.32155C9.53269 5.54946 9.67303 5.79794 9.78052 6.06107C9.89085 6.30451 9.95007 6.568 9.95453 6.83524C9.95116 7.17372 9.85488 7.50477 9.6762 7.79226C9.51631 8.06403 9.32024 8.31281 9.09336 8.53178L8.50167 9.14773C8.50879 9.16865 8.51754 9.18899 8.52784 9.20855C8.73612 9.55177 8.97486 9.87555 9.24118 10.176C9.66734 10.6633 10.0677 11.1068 10.4681 11.5156C10.9812 12.0203 11.4078 12.4203 11.8078 12.751C12.1168 13.028 12.4552 13.2702 12.8171 13.4732L12.7998 13.5167L13.435 12.8904C13.6639 12.6516 13.928 12.4492 14.218 12.2902C14.4722 12.1387 14.7592 12.0509 15.0545 12.0342C15.3499 12.0175 15.645 12.0725 15.9146 12.1943C16.1721 12.3044 16.4173 12.4414 16.646 12.6032L19.5332 14.6566C19.841 14.8573 20.0828 15.1442 20.2285 15.4816C20.3523 15.7796 20.4176 16.0986 20.421 16.4213C20.419 16.8457 20.324 17.2645 20.1426 17.6482C19.9663 18.0302 19.7314 18.3824 19.4466 18.6922C18.9926 19.2133 18.4237 19.6219 17.7847 19.8856C17.1682 20.1342 16.5093 20.2607 15.8445 20.2582ZM5.52588 2.85777C5.27081 2.8667 5.02013 2.92674 4.78868 3.03432C4.55724 3.14191 4.34975 3.29486 4.1785 3.48411C3.80512 3.82286 3.51332 4.24179 3.32503 4.70945C3.14225 5.16885 3.05072 5.65945 3.05555 6.15385C3.07203 7.0481 3.26719 7.93003 3.62954 8.74775C4.06599 9.75184 4.61459 10.7034 5.26487 11.5842C5.97998 12.5645 6.7682 13.4894 7.62279 14.3509C8.48778 15.2076 9.41542 15.9986 10.398 16.7173C11.2847 17.3753 12.2455 17.9271 13.2606 18.3615C14.7485 18.9967 16.1405 19.1445 17.2889 18.666C17.748 18.4752 18.1565 18.1804 18.4823 17.8048C18.682 17.588 18.8464 17.3412 18.9697 17.0734C19.0717 16.8648 19.1253 16.6358 19.1263 16.4036C19.1262 16.2533 19.0935 16.1049 19.0305 15.9685C18.9749 15.8608 18.8905 15.7704 18.7868 15.7075L15.8996 13.6541C15.7505 13.547 15.59 13.4566 15.421 13.3847C15.3375 13.325 15.2363 13.2951 15.1338 13.2998C15.0312 13.3046 14.9332 13.3437 14.8555 13.4108C14.6672 13.5132 14.4968 13.6454 14.3508 13.8023L13.6895 14.4549C13.5233 14.6098 13.3177 14.716 13.0953 14.7621C12.8728 14.8081 12.6419 14.7921 12.4279 14.7159L12.1931 14.6115C11.7524 14.3616 11.3384 14.0671 10.9577 13.7327C10.5401 13.3758 10.0877 12.9585 9.53953 12.4188C9.11068 11.9853 8.68414 11.5233 8.24066 11.0098C7.90383 10.6322 7.6065 10.2211 7.35331 9.78292L7.24899 9.52191C7.20611 9.38075 7.18267 9.2344 7.17931 9.0869C7.17726 8.93684 7.20549 8.78791 7.26231 8.649C7.31913 8.5101 7.40337 8.38408 7.50999 8.27847L8.16251 7.59978C8.31274 7.45421 8.44426 7.29049 8.55402 7.11241C8.61334 7.02493 8.64658 6.9224 8.64988 6.81676C8.64343 6.72057 8.61983 6.62631 8.5802 6.53843C8.50438 6.37484 8.41106 6.21995 8.30187 6.07647L6.28311 3.2231C6.20166 3.10629 6.09058 3.01328 5.96128 2.95363C5.8243 2.892 5.67607 2.85937 5.52588 2.85777ZM12.7987 13.5252L12.6593 14.1169L12.8941 13.5078C12.878 13.503 12.8609 13.5021 12.8443 13.5051C12.8277 13.5081 12.8121 13.515 12.7987 13.5252Z" fill="white"/>
</svg>
