<svg width="17" height="17" viewBox="0 0 17 17" fill="none" xmlns="http://www.w3.org/2000/svg">
<g clip-path="url(#clip0_138_4470)">
<path d="M7.79167 8.5C7.97953 8.5 8.1597 8.57463 8.29253 8.70747C8.42537 8.8403 8.5 9.02047 8.5 9.20833C8.5 9.39619 8.42537 9.57636 8.29253 9.7092C8.1597 9.84204 7.97953 9.91667 7.79167 9.91667H5.66667C5.47881 9.91667 5.29864 9.84204 5.1658 9.7092C5.03296 9.57636 4.95833 9.39619 4.95833 9.20833C4.95833 9.02047 5.03296 8.8403 5.1658 8.70747C5.29864 8.57463 5.47881 8.5 5.66667 8.5H7.79167ZM12.0417 6.375C12.0417 6.18714 11.967 6.00697 11.8342 5.87413C11.7014 5.74129 11.5212 5.66667 11.3333 5.66667H5.66667C5.47881 5.66667 5.29864 5.74129 5.1658 5.87413C5.03296 6.00697 4.95833 6.18714 4.95833 6.375C4.95833 6.56286 5.03296 6.74303 5.1658 6.87587C5.29864 7.00871 5.47881 7.08333 5.66667 7.08333H11.3333C11.5212 7.08333 11.7014 7.00871 11.8342 6.87587C11.967 6.74303 12.0417 6.56286 12.0417 6.375ZM5.66667 4.25H11.3333C11.5212 4.25 11.7014 4.17537 11.8342 4.04253C11.967 3.9097 12.0417 3.72953 12.0417 3.54167C12.0417 3.3538 11.967 3.17364 11.8342 3.0408C11.7014 2.90796 11.5212 2.83333 11.3333 2.83333H5.66667C5.47881 2.83333 5.29864 2.90796 5.1658 3.0408C5.03296 3.17364 4.95833 3.3538 4.95833 3.54167C4.95833 3.72953 5.03296 3.9097 5.1658 4.04253C5.29864 4.17537 5.47881 4.25 5.66667 4.25ZM14.1667 13.7728V16.4879C14.1667 16.5889 14.1368 16.6877 14.0807 16.7717C14.0246 16.8558 13.9448 16.9213 13.8514 16.9599C13.7581 16.9986 13.6554 17.0087 13.5563 16.989C13.4572 16.9693 13.3661 16.9206 13.2947 16.8491L12.75 16.3051L12.2053 16.8491C12.1339 16.9206 12.0428 16.9693 11.9437 16.989C11.8446 17.0087 11.7419 16.9986 11.6486 16.9599C11.5552 16.9213 11.4754 16.8558 11.4193 16.7717C11.3632 16.6877 11.3333 16.5889 11.3333 16.4879V13.7728C10.7931 13.4625 10.3707 12.9821 10.1319 12.4067C9.89304 11.8313 9.8512 11.193 10.0129 10.5913C10.1745 9.98964 10.5306 9.45829 11.0257 9.08004C11.5207 8.70178 12.127 8.49785 12.75 8.5C12.9894 8.50299 13.2275 8.5368 13.4583 8.60058V3.54167C13.4583 2.97808 13.2345 2.43758 12.8359 2.03906C12.4374 1.64055 11.8969 1.41667 11.3333 1.41667H5.66667C5.10308 1.41667 4.56258 1.64055 4.16406 2.03906C3.76555 2.43758 3.54167 2.97808 3.54167 3.54167V12.0417C3.54167 12.6053 3.76555 13.1458 4.16406 13.5443C4.56258 13.9428 5.10308 14.1667 5.66667 14.1667H9.20833C9.3962 14.1667 9.57636 14.2413 9.7092 14.3741C9.84204 14.507 9.91667 14.6871 9.91667 14.875C9.91667 15.0629 9.84204 15.243 9.7092 15.3759C9.57636 15.5087 9.3962 15.5833 9.20833 15.5833H5.66667C4.7277 15.5822 3.82752 15.2087 3.16357 14.5448C2.49962 13.8808 2.12612 12.9806 2.125 12.0417V3.54167C2.12612 2.6027 2.49962 1.70252 3.16357 1.03857C3.82752 0.374625 4.7277 0.00112473 5.66667 0L11.3333 0C12.2723 0.00112473 13.1725 0.374625 13.8364 1.03857C14.5004 1.70252 14.8739 2.6027 14.875 3.54167V9.47892C15.1525 9.79051 15.3567 10.1602 15.4728 10.561C15.589 10.9617 15.614 11.3833 15.5461 11.795C15.4782 12.2067 15.319 12.5979 15.0804 12.9401C14.8417 13.2824 14.5295 13.5669 14.1667 13.7728ZM14.1667 11.3333C14.1667 11.0531 14.0836 10.7792 13.9279 10.5463C13.7723 10.3133 13.551 10.1317 13.2921 10.0245C13.0333 9.91728 12.7484 9.88923 12.4736 9.94389C12.1988 9.99855 11.9464 10.1335 11.7483 10.3316C11.5501 10.5297 11.4152 10.7821 11.3606 11.057C11.3059 11.3318 11.3339 11.6166 11.4412 11.8755C11.5484 12.1343 11.73 12.3556 11.9629 12.5112C12.1959 12.6669 12.4698 12.75 12.75 12.75C13.1257 12.75 13.4861 12.6007 13.7517 12.3351C14.0174 12.0694 14.1667 11.7091 14.1667 11.3333Z" fill="#374957"/>
</g>
<defs>
<clipPath id="clip0_138_4470">
<rect width="17" height="17" fill="white"/>
</clipPath>
</defs>
</svg>
