<svg width="32" height="32" viewBox="0 0 32 32" fill="none" xmlns="http://www.w3.org/2000/svg">
<path d="M20.0418 17.2128H10.9055C10.6465 17.2109 10.3988 17.1072 10.2157 16.9241C10.0326 16.741 9.92892 16.4932 9.927 16.2343C9.92892 15.9754 10.0326 15.7276 10.2157 15.5446C10.3988 15.3615 10.6465 15.2578 10.9055 15.2559H20.0418C20.3007 15.2578 20.5485 15.3615 20.7316 15.5446C20.9146 15.7276 21.0183 15.9754 21.0203 16.2343C21.0183 16.4932 20.9146 16.741 20.7316 16.9241C20.5485 17.1072 20.3007 17.2109 20.0418 17.2128Z" fill="white"/>
<path d="M16.6226 22.4335H10.9055C10.6465 22.4316 10.3988 22.3279 10.2157 22.1448C10.0326 21.9617 9.92892 21.7139 9.927 21.455C9.92892 21.1961 10.0326 20.9484 10.2157 20.7653C10.3988 20.5822 10.6465 20.4785 10.9055 20.4766H16.6226C16.8815 20.4785 17.1293 20.5822 17.3123 20.7653C17.4954 20.9484 17.5991 21.1961 17.601 21.455C17.5991 21.7139 17.4954 21.9617 17.3123 22.1448C17.1293 22.3279 16.8815 22.4316 16.6226 22.4335Z" fill="white"/>
<path d="M18.737 9.12181H13.516C12.2631 9.12181 9.927 9.12181 9.927 5.53283C9.927 1.94385 12.2631 1.94336 13.516 1.94336H18.737C19.9899 1.94336 22.326 1.94336 22.326 5.53234C22.326 6.78672 22.326 9.12181 18.737 9.12181ZM13.516 3.90027C12.2264 3.90027 11.8839 3.90027 11.8839 5.53234C11.8839 7.16441 12.2234 7.16392 13.5155 7.16392H18.737C20.3686 7.16392 20.3686 6.8244 20.3686 5.53234C20.3681 3.90027 20.0291 3.90027 18.737 3.90027H13.516Z" fill="white"/>
<path d="M20.0423 30.0039H12.2112C4.87621 30.0039 3.40118 26.6365 3.40118 21.1943V13.3633C3.40118 7.4118 5.55379 4.86634 10.8536 4.59237C11.1128 4.5802 11.3664 4.67062 11.5594 4.84404C11.7524 5.01747 11.8694 5.25995 11.8849 5.51897C11.8914 5.64668 11.8725 5.77441 11.8294 5.89478C11.7862 6.01515 11.7197 6.12578 11.6335 6.22026C11.5473 6.31475 11.4433 6.39122 11.3274 6.44526C11.2115 6.4993 11.0861 6.52983 10.9583 6.5351C7.25141 6.74596 5.3581 7.85602 5.3581 13.3633V21.1943C5.3581 26.023 6.31161 28.0465 12.2112 28.0465H20.0423C25.9414 28.0465 26.8944 26.0235 26.8944 21.1943V13.3633C26.8944 7.85602 25.0016 6.74596 21.2952 6.5351C21.0369 6.51943 20.7951 6.40302 20.6217 6.21089C20.4483 6.01877 20.3573 5.76628 20.3681 5.50772C20.3832 5.24827 20.4999 5.00519 20.6929 4.8312C20.886 4.6572 21.1398 4.56629 21.3994 4.57818C26.6983 4.86634 28.8518 7.4118 28.8518 13.3501V21.1811C28.8518 26.6365 27.3773 30.0039 20.0423 30.0039Z" fill="white"/>
</svg>
