<svg width="15" height="16" viewBox="0 0 15 16" fill="none" xmlns="http://www.w3.org/2000/svg">
<path d="M7.23804 14.0337C6.18026 14.0337 5.20026 13.7692 4.29804 13.2404C3.41915 12.7192 2.71915 12.0192 2.19804 11.1404C1.66915 10.2381 1.40471 9.25814 1.40471 8.20036C1.40471 7.14258 1.66915 6.16258 2.19804 5.26036C2.71915 4.38147 3.41915 3.68147 4.29804 3.16036C5.20026 2.63147 6.18026 2.36702 7.23804 2.36702C8.29582 2.36702 9.27582 2.63147 10.178 3.16036C11.0569 3.68147 11.7569 4.38147 12.278 5.26036C12.8069 6.16258 13.0714 7.14258 13.0714 8.20036C13.0714 9.25814 12.8069 10.2381 12.278 11.1404C11.7569 12.0192 11.0569 12.7192 10.178 13.2404C9.27582 13.7692 8.29582 14.0337 7.23804 14.0337ZM7.23804 12.867C8.08582 12.867 8.87138 12.6531 9.59471 12.2254C10.2947 11.8131 10.8508 11.257 11.263 10.557C11.6908 9.83369 11.9047 9.04814 11.9047 8.20036C11.9047 7.35258 11.6908 6.56702 11.263 5.84369C10.8508 5.14369 10.2947 4.58758 9.59471 4.17536C8.87138 3.74758 8.08582 3.53369 7.23804 3.53369C6.39026 3.53369 5.60471 3.74758 4.88138 4.17536C4.18138 4.58758 3.62526 5.14369 3.21304 5.84369C2.78526 6.56702 2.57138 7.35258 2.57138 8.20036C2.57138 9.04814 2.78526 9.83369 3.21304 10.557C3.62526 11.257 4.18138 11.8131 4.88138 12.2254C5.60471 12.6531 6.39026 12.867 7.23804 12.867ZM7.82138 8.20036H10.1547V9.36702H6.65471V5.28369H7.82138V8.20036Z" fill="#6D7289"/>
</svg>

