<svg width="12" height="13" viewBox="0 0 12 13" fill="none" xmlns="http://www.w3.org/2000/svg">
<path d="M7.35143 10.2837H2.64975C2.0265 10.283 1.42899 10.0351 0.988282 9.59436C0.547575 9.15366 0.299659 8.55614 0.298912 7.93289L0.298912 3.23121C0.299659 2.60796 0.547575 2.01045 0.988282 1.56974C1.42899 1.12903 2.0265 0.881118 2.64975 0.880371L7.35143 0.880371C7.97468 0.881118 8.5722 1.12903 9.0129 1.56974C9.45361 2.01045 9.70153 2.60796 9.70227 3.23121V7.93289C9.70153 8.55614 9.45361 9.15366 9.0129 9.59436C8.5722 10.0351 7.97468 10.283 7.35143 10.2837V10.2837ZM2.64975 1.82071C2.27566 1.82071 1.9169 1.96931 1.65238 2.23383C1.38785 2.49836 1.23925 2.85712 1.23925 3.23121V7.93289C1.23925 8.30698 1.38785 8.66575 1.65238 8.93027C1.9169 9.19479 2.27566 9.3434 2.64975 9.3434H7.35143C7.72552 9.3434 8.08429 9.19479 8.34881 8.93027C8.61333 8.66575 8.76194 8.30698 8.76194 7.93289V3.23121C8.76194 2.85712 8.61333 2.49836 8.34881 2.23383C8.08429 1.96931 7.72552 1.82071 7.35143 1.82071H2.64975ZM11.5829 9.81356V3.70138C11.5829 3.57668 11.5334 3.45709 11.4452 3.36892C11.3571 3.28075 11.2375 3.23121 11.1128 3.23121C10.9881 3.23121 10.8685 3.28075 10.7803 3.36892C10.6921 3.45709 10.6426 3.57668 10.6426 3.70138V9.81356C10.6426 10.1877 10.494 10.5464 10.2295 10.8109C9.96496 11.0755 9.60619 11.2241 9.2321 11.2241H3.11992C2.99522 11.2241 2.87563 11.2736 2.78746 11.3618C2.69929 11.4499 2.64975 11.5695 2.64975 11.6942C2.64975 11.8189 2.69929 11.9385 2.78746 12.0267C2.87563 12.1149 2.99522 12.1644 3.11992 12.1644H9.2321C9.85536 12.1637 10.4529 11.9157 10.8936 11.475C11.3343 11.0343 11.5822 10.4368 11.5829 9.81356V9.81356Z" fill="#374957"/>
</svg>
