<svg width="17" height="17" viewBox="0 0 17 17" fill="none" xmlns="http://www.w3.org/2000/svg">
<g clip-path="url(#clip0_138_4462)">
<path d="M15.725 1.53205C15.3268 1.19908 14.8602 0.95787 14.3583 0.825535C13.8563 0.693201 13.3314 0.672992 12.8208 0.766344L10.1136 1.25793C9.48855 1.37271 8.92025 1.69428 8.5 2.17097C8.07866 1.69346 7.50873 1.37181 6.88217 1.25793L4.17917 0.766344C3.66857 0.67291 3.14368 0.692854 2.64164 0.824764C2.13961 0.956674 1.6727 1.19732 1.27398 1.52968C0.875264 1.86204 0.554474 2.27798 0.334321 2.74805C0.114168 3.21813 3.45755e-05 3.73085 0 4.24993L0 11.895C4.06979e-05 12.7243 0.291108 13.5273 0.82247 14.164C1.35383 14.8007 2.09179 15.2308 2.90771 15.3793L7.36029 16.1889C8.11393 16.3258 8.88607 16.3258 9.63971 16.1889L14.0958 15.3793C14.9111 15.2301 15.6482 14.7997 16.1789 14.163C16.7095 13.5264 17.0001 12.7238 17 11.895V4.24993C17.0003 3.73103 16.8862 3.21845 16.6659 2.74868C16.4455 2.27891 16.1242 1.86351 15.725 1.53205ZM7.79167 14.8239C7.73217 14.8154 7.67267 14.8055 7.61317 14.7949L3.16129 13.986C2.67167 13.8969 2.22884 13.6388 1.91001 13.2567C1.59119 12.8745 1.41659 12.3926 1.41667 11.895V4.24993C1.41667 3.68634 1.64055 3.14584 2.03907 2.74733C2.43758 2.34881 2.97808 2.12493 3.54167 2.12493C3.66994 2.12523 3.79794 2.13685 3.92417 2.15964L6.63 2.65547C6.95556 2.71504 7.24999 2.88672 7.46218 3.14071C7.67438 3.3947 7.79095 3.71496 7.79167 4.04593V14.8239ZM15.5833 11.895C15.5834 12.3926 15.4088 12.8745 15.09 13.2567C14.7712 13.6388 14.3283 13.8969 13.8387 13.986L9.38683 14.7949C9.32733 14.8055 9.26783 14.8154 9.20833 14.8239V4.04593C9.20828 3.71415 9.32468 3.39288 9.53723 3.13813C9.74978 2.88338 10.045 2.71131 10.3714 2.65193L13.078 2.15609C13.3845 2.10033 13.6995 2.11264 14.0007 2.19216C14.3019 2.27167 14.582 2.41645 14.821 2.61623C15.0601 2.81601 15.2523 3.06592 15.384 3.34823C15.5158 3.63055 15.5838 3.93839 15.5833 4.24993V11.895Z" fill="#374957"/>
</g>
<defs>
<clipPath id="clip0_138_4462">
<rect width="17" height="17" fill="white"/>
</clipPath>
</defs>
</svg>
