<svg width="17" height="17" viewBox="0 0 17 17" fill="none" xmlns="http://www.w3.org/2000/svg">
<g clip-path="url(#clip0_138_4466)">
<path d="M14.1667 8.50017C13.7322 8.50009 13.3035 8.60011 12.9138 8.79248C12.5242 8.98485 12.1841 9.26439 11.9199 9.60942L11.8703 9.58817C12.0651 8.98468 12.0943 8.33996 11.9549 7.72133C11.8154 7.1027 11.5124 6.53287 11.0775 6.07134C10.6426 5.6098 10.0918 5.27351 9.48251 5.09757C8.87326 4.92162 8.22793 4.9125 7.61395 5.07113L7.54949 4.9493C8.064 4.49152 8.39392 3.86182 8.47741 3.17821C8.56089 2.4946 8.39222 1.80401 8.003 1.23586C7.61377 0.667712 7.03072 0.261002 6.3631 0.0919522C5.69549 -0.0770971 4.98914 0.00311872 4.37643 0.317567C3.76372 0.632014 3.28671 1.15911 3.0348 1.80007C2.78289 2.44103 2.77336 3.15186 3.00801 3.79934C3.24266 4.44681 3.70538 4.9865 4.30944 5.31725C4.91351 5.648 5.61746 5.74711 6.28936 5.596L6.34107 5.69305C5.63278 6.23657 5.1563 7.02791 5.00731 7.9082C4.85832 8.78848 5.04784 9.69254 5.53782 10.4389L4.20261 11.6877C3.59909 11.3542 2.89468 11.2523 2.2214 11.401C1.54811 11.5497 0.952153 11.9388 0.545201 12.4954C0.13825 13.052 -0.0517649 13.7379 0.0107646 14.4246C0.0732941 15.1113 0.384076 15.7516 0.884873 16.2255C1.38567 16.6995 2.04211 16.9745 2.73118 16.9992C3.42025 17.0238 4.09466 16.7963 4.62803 16.3594C5.16139 15.9224 5.51711 15.3059 5.62852 14.6255C5.73994 13.945 5.5994 13.2473 5.23324 12.663L6.53515 11.4461C7.2502 11.9241 8.11491 12.1251 8.96745 12.0115C9.81999 11.8979 10.6019 11.4776 11.1669 10.8292L11.3646 10.9135C11.2788 11.4854 11.3702 12.0699 11.6263 12.5884C11.8825 13.1069 12.2912 13.5347 12.7975 13.8141C13.3039 14.0936 13.8836 14.2114 14.4588 14.1517C15.0341 14.0921 15.5773 13.8578 16.0155 13.4804C16.4538 13.103 16.766 12.6005 16.9103 12.0405C17.0546 11.4804 17.0241 10.8896 16.8228 10.3474C16.6215 9.80525 16.2592 9.33765 15.7844 9.00743C15.3096 8.67721 14.7451 8.5002 14.1667 8.50017ZM4.25007 2.83351C4.25007 2.55332 4.33316 2.27942 4.48882 2.04645C4.64449 1.81348 4.86574 1.6319 5.1246 1.52468C5.38346 1.41745 5.66831 1.3894 5.94311 1.44406C6.21792 1.49872 6.47035 1.63365 6.66847 1.83177C6.8666 2.0299 7.00152 2.28232 7.05618 2.55713C7.11085 2.83193 7.08279 3.11678 6.97557 3.37564C6.86834 3.6345 6.68676 3.85576 6.45379 4.01142C6.22083 4.16709 5.94693 4.25017 5.66674 4.25017C5.29101 4.25017 4.93068 4.10092 4.665 3.83524C4.39933 3.56956 4.25007 3.20923 4.25007 2.83351ZM2.8334 15.5835C2.55321 15.5835 2.27931 15.5004 2.04635 15.3448C1.81338 15.1891 1.6318 14.9678 1.52457 14.709C1.41735 14.4501 1.38929 14.1653 1.44396 13.8905C1.49862 13.6157 1.63354 13.3632 1.83167 13.1651C2.02979 12.967 2.28222 12.8321 2.55703 12.7774C2.83183 12.7227 3.11668 12.7508 3.37554 12.858C3.6344 12.9652 3.85565 13.1468 4.01132 13.3798C4.16698 13.6127 4.25007 13.8866 4.25007 14.1668C4.25007 14.5426 4.10081 14.9029 3.83514 15.1686C3.56946 15.4342 3.20913 15.5835 2.8334 15.5835ZM8.50007 10.6252C8.04014 10.6243 7.59292 10.4742 7.22557 10.1974C6.85822 9.92068 6.59058 9.53222 6.46284 9.09039C6.33509 8.64855 6.35415 8.1772 6.51714 7.74712C6.68012 7.31704 6.97825 6.95145 7.36674 6.70525L7.65503 6.55155C7.94471 6.42554 8.25884 6.3657 8.57455 6.37639C8.89027 6.38708 9.19963 6.46802 9.48013 6.61333C9.76062 6.75864 10.0052 6.96465 10.196 7.21639C10.3869 7.46812 10.5192 7.75923 10.5834 8.06855C10.6475 8.37786 10.6419 8.69759 10.567 9.00446C10.492 9.31133 10.3495 9.59763 10.15 9.84252C9.95045 10.0874 9.69881 10.2847 9.41339 10.4201C9.12798 10.5555 8.81597 10.6256 8.50007 10.6252ZM14.1667 12.7502C13.8865 12.7502 13.6126 12.6671 13.3797 12.5114C13.1467 12.3558 12.9651 12.1345 12.8579 11.8756C12.7507 11.6168 12.7226 11.3319 12.7773 11.0571C12.832 10.7823 12.9669 10.5299 13.165 10.3318C13.3631 10.1336 13.6156 9.99872 13.8904 9.94406C14.1652 9.8894 14.45 9.91745 14.7089 10.0247C14.9677 10.1319 15.189 10.3135 15.3447 10.5464C15.5003 10.7794 15.5834 11.0533 15.5834 11.3335C15.5834 11.7092 15.4341 12.0696 15.1685 12.3352C14.9028 12.6009 14.5425 12.7502 14.1667 12.7502Z" fill="#374957"/>
</g>
<defs>
<clipPath id="clip0_138_4466">
<rect width="17" height="17" fill="white"/>
</clipPath>
</defs>
</svg>
