<svg width="17" height="17" viewBox="0 0 17 17" fill="none" xmlns="http://www.w3.org/2000/svg">
<g clip-path="url(#clip0_138_4454)">
<path d="M4.95833 0H2.83333C2.08189 0 1.36122 0.298511 0.829864 0.829864C0.298511 1.36122 0 2.08189 0 2.83333L0 4.95833C0 5.70978 0.298511 6.43045 0.829864 6.9618C1.36122 7.49316 2.08189 7.79167 2.83333 7.79167H4.95833C5.70978 7.79167 6.43045 7.49316 6.9618 6.9618C7.49316 6.43045 7.79167 5.70978 7.79167 4.95833V2.83333C7.79167 2.08189 7.49316 1.36122 6.9618 0.829864C6.43045 0.298511 5.70978 0 4.95833 0V0ZM6.375 4.95833C6.375 5.33406 6.22574 5.69439 5.96007 5.96007C5.69439 6.22574 5.33406 6.375 4.95833 6.375H2.83333C2.45761 6.375 2.09728 6.22574 1.8316 5.96007C1.56592 5.69439 1.41667 5.33406 1.41667 4.95833V2.83333C1.41667 2.45761 1.56592 2.09728 1.8316 1.8316C2.09728 1.56592 2.45761 1.41667 2.83333 1.41667H4.95833C5.33406 1.41667 5.69439 1.56592 5.96007 1.8316C6.22574 2.09728 6.375 2.45761 6.375 2.83333V4.95833Z" fill="#374957"/>
<path d="M14.1666 0H12.0416C11.2901 0 10.5695 0.298511 10.0381 0.829865C9.50676 1.36122 9.20825 2.08189 9.20825 2.83334V4.95834C9.20825 5.70978 9.50676 6.43045 10.0381 6.96181C10.5695 7.49316 11.2901 7.79167 12.0416 7.79167H14.1666C14.918 7.79167 15.6387 7.49316 16.17 6.96181C16.7014 6.43045 16.9999 5.70978 16.9999 4.95834V2.83334C16.9999 2.08189 16.7014 1.36122 16.17 0.829865C15.6387 0.298511 14.918 0 14.1666 0V0ZM15.5832 4.95834C15.5832 5.33406 15.434 5.6944 15.1683 5.96007C14.9026 6.22575 14.5423 6.375 14.1666 6.375H12.0416C11.6659 6.375 11.3055 6.22575 11.0398 5.96007C10.7742 5.6944 10.6249 5.33406 10.6249 4.95834V2.83334C10.6249 2.45761 10.7742 2.09728 11.0398 1.8316C11.3055 1.56592 11.6659 1.41667 12.0416 1.41667H14.1666C14.5423 1.41667 14.9026 1.56592 15.1683 1.8316C15.434 2.09728 15.5832 2.45761 15.5832 2.83334V4.95834Z" fill="#374957"/>
<path d="M4.95833 9.20825H2.83333C2.08189 9.20825 1.36122 9.50676 0.829864 10.0381C0.298511 10.5695 0 11.2901 0 12.0416L0 14.1666C0 14.918 0.298511 15.6387 0.829864 16.1701C1.36122 16.7014 2.08189 16.9999 2.83333 16.9999H4.95833C5.70978 16.9999 6.43045 16.7014 6.9618 16.1701C7.49316 15.6387 7.79167 14.918 7.79167 14.1666V12.0416C7.79167 11.2901 7.49316 10.5695 6.9618 10.0381C6.43045 9.50676 5.70978 9.20825 4.95833 9.20825ZM6.375 14.1666C6.375 14.5423 6.22574 14.9027 5.96007 15.1683C5.69439 15.434 5.33406 15.5833 4.95833 15.5833H2.83333C2.45761 15.5833 2.09728 15.434 1.8316 15.1683C1.56592 14.9027 1.41667 14.5423 1.41667 14.1666V12.0416C1.41667 11.6659 1.56592 11.3055 1.8316 11.0399C2.09728 10.7742 2.45761 10.6249 2.83333 10.6249H4.95833C5.33406 10.6249 5.69439 10.7742 5.96007 11.0399C6.22574 11.3055 6.375 11.6659 6.375 12.0416V14.1666Z" fill="#374957"/>
<path d="M14.1666 9.20825H12.0416C11.2901 9.20825 10.5695 9.50676 10.0381 10.0381C9.50676 10.5695 9.20825 11.2901 9.20825 12.0416V14.1666C9.20825 14.918 9.50676 15.6387 10.0381 16.1701C10.5695 16.7014 11.2901 16.9999 12.0416 16.9999H14.1666C14.918 16.9999 15.6387 16.7014 16.17 16.1701C16.7014 15.6387 16.9999 14.918 16.9999 14.1666V12.0416C16.9999 11.2901 16.7014 10.5695 16.17 10.0381C15.6387 9.50676 14.918 9.20825 14.1666 9.20825ZM15.5832 14.1666C15.5832 14.5423 15.434 14.9027 15.1683 15.1683C14.9026 15.434 14.5423 15.5833 14.1666 15.5833H12.0416C11.6659 15.5833 11.3055 15.434 11.0398 15.1683C10.7742 14.9027 10.6249 14.5423 10.6249 14.1666V12.0416C10.6249 11.6659 10.7742 11.3055 11.0398 11.0399C11.3055 10.7742 11.6659 10.6249 12.0416 10.6249H14.1666C14.5423 10.6249 14.9026 10.7742 15.1683 11.0399C15.434 11.3055 15.5832 11.6659 15.5832 12.0416V14.1666Z" fill="#374957"/>
</g>
<defs>
<clipPath id="clip0_138_4454">
<rect width="17" height="17" fill="white"/>
</clipPath>
</defs>
</svg>
