<svg width="12" height="12" viewBox="0 0 12 12" fill="none" xmlns="http://www.w3.org/2000/svg">
<path d="M10.0426 5.65269H8.17274C7.24246 5.65269 6.79352 5.19912 6.79352 4.27347V2.40364C6.79352 1.47336 7.24709 1.02441 8.17274 1.02441H10.0426C10.9729 1.02441 11.4218 1.47799 11.4218 2.40364V4.27347C11.4218 5.19912 10.9682 5.65269 10.0426 5.65269ZM8.17274 1.71866C7.62661 1.71866 7.48776 1.8575 7.48776 2.40364V4.27347C7.48776 4.8196 7.62661 4.95845 8.17274 4.95845H10.0426C10.5887 4.95845 10.7276 4.8196 10.7276 4.27347V2.40364C10.7276 1.8575 10.5887 1.71866 10.0426 1.71866H8.17274Z" fill="#707070"/>
<path d="M4.71975 5.65269H2.84993C1.91965 5.65269 1.4707 5.24078 1.4707 4.38917V2.28793C1.4707 1.43633 1.92427 1.02441 2.84993 1.02441H4.71975C5.65004 1.02441 6.09898 1.43633 6.09898 2.28793V4.38454C6.09898 5.24078 5.64541 5.65269 4.71975 5.65269ZM2.84993 1.71866C2.22974 1.71866 2.16494 1.89453 2.16494 2.28793V4.38454C2.16494 4.78258 2.22974 4.95382 2.84993 4.95382H4.71975C5.33994 4.95382 5.40474 4.77795 5.40474 4.38454V2.28793C5.40474 1.8899 5.33994 1.71866 4.71975 1.71866H2.84993Z" fill="#707070"/>
<path d="M4.71975 10.9759H2.84993C1.91965 10.9759 1.4707 10.5224 1.4707 9.59671V7.72688C1.4707 6.7966 1.92427 6.34766 2.84993 6.34766H4.71975C5.65004 6.34766 6.09898 6.80123 6.09898 7.72688V9.59671C6.09898 10.5224 5.64541 10.9759 4.71975 10.9759ZM2.84993 7.0419C2.30379 7.0419 2.16494 7.18075 2.16494 7.72688V9.59671C2.16494 10.1428 2.30379 10.2817 2.84993 10.2817H4.71975C5.26589 10.2817 5.40474 10.1428 5.40474 9.59671V7.72688C5.40474 7.18075 5.26589 7.0419 4.71975 7.0419H2.84993Z" fill="#707070"/>
<path d="M10.6118 7.96768H7.83479C7.74292 7.96707 7.65498 7.93031 7.59001 7.86534C7.52504 7.80037 7.48828 7.71243 7.48767 7.62056C7.48828 7.52868 7.52504 7.44074 7.59001 7.37578C7.65498 7.31081 7.74292 7.27404 7.83479 7.27344H10.6118C10.7036 7.27404 10.7916 7.31081 10.8565 7.37578C10.9215 7.44074 10.9583 7.52868 10.9589 7.62056C10.9583 7.71243 10.9215 7.80037 10.8565 7.86534C10.7916 7.93031 10.7036 7.96707 10.6118 7.96768Z" fill="#707070"/>
<path d="M10.6118 9.81827H7.83479C7.74292 9.81766 7.65498 9.78089 7.59001 9.71593C7.52504 9.65096 7.48828 9.56302 7.48767 9.47114C7.48828 9.37927 7.52504 9.29133 7.59001 9.22636C7.65498 9.1614 7.74292 9.12463 7.83479 9.12402H10.6118C10.7036 9.12463 10.7916 9.1614 10.8565 9.22636C10.9215 9.29133 10.9583 9.37927 10.9589 9.47114C10.9583 9.56302 10.9215 9.65096 10.8565 9.71593C10.7916 9.78089 10.7036 9.81766 10.6118 9.81827Z" fill="#707070"/>
</svg>
