<svg width="15" height="16" viewBox="0 0 15 16" fill="none" xmlns="http://www.w3.org/2000/svg">
<path d="M7.5 0.0678711C6.01664 0.0678711 4.5666 0.507738 3.33323 1.33185C2.09986 2.15596 1.13856 3.3273 0.570907 4.69775C0.00324965 6.06819 -0.145275 7.57619 0.144114 9.03105C0.433503 10.4859 1.14781 11.8223 2.1967 12.8712C3.2456 13.9201 4.58197 14.6344 6.03683 14.9238C7.49168 15.2132 8.99968 15.0646 10.3701 14.497C11.7406 13.9293 12.9119 12.968 13.736 11.7346C14.5601 10.5013 15 9.05123 15 7.56787C14.9979 5.57941 14.207 3.673 12.8009 2.26695C11.3949 0.860889 9.48847 0.0700218 7.5 0.0678711V0.0678711ZM12.9044 4.44287H10.8913C10.4406 3.39849 9.84724 2.42167 9.12813 1.54037C10.7197 1.97345 12.0765 3.01629 12.9044 4.44287V4.44287ZM10.3125 7.56787C10.3074 8.20421 10.2071 8.8362 10.015 9.44287H4.985C4.79291 8.8362 4.69263 8.20421 4.6875 7.56787C4.69263 6.93153 4.79291 6.29954 4.985 5.69287H10.015C10.2071 6.29954 10.3074 6.93153 10.3125 7.56787V7.56787ZM5.48625 10.6929H9.51375C8.98328 11.7402 8.3051 12.7059 7.5 13.5604C6.69461 12.7061 6.0164 11.7404 5.48625 10.6929V10.6929ZM5.48625 4.44287C6.01673 3.39554 6.69491 2.42985 7.5 1.57537C8.3054 2.4296 8.9836 3.39534 9.51375 4.44287H5.48625ZM5.875 1.54037C5.15479 2.42149 4.56037 3.39831 4.10875 4.44287H2.09563C2.92429 3.01564 4.28229 1.97272 5.875 1.54037V1.54037ZM1.53813 5.69287H3.6875C3.52548 6.30484 3.44148 6.93483 3.4375 7.56787C3.44148 8.20091 3.52548 8.83091 3.6875 9.44287H1.53813C1.15397 8.22239 1.15397 6.91336 1.53813 5.69287V5.69287ZM2.09563 10.6929H4.10875C4.56037 11.7374 5.15479 12.7143 5.875 13.5954C4.28229 13.163 2.92429 12.1201 2.09563 10.6929V10.6929ZM9.12813 13.5954C9.84724 12.7141 10.4406 11.7373 10.8913 10.6929H12.9044C12.0765 12.1195 10.7197 13.1623 9.12813 13.5954V13.5954ZM13.4619 9.44287H11.3125C11.4745 8.83091 11.5585 8.20091 11.5625 7.56787C11.5585 6.93483 11.4745 6.30484 11.3125 5.69287H13.4606C13.8448 6.91336 13.8448 8.22239 13.4606 9.44287H13.4619Z" fill="#374957"/>
</svg>
