<svg width="15" height="15" viewBox="0 0 15 15" fill="none" xmlns="http://www.w3.org/2000/svg">
<path d="M13.7856 3.34325L9.17696 1.14768C8.1625 0.541723 6.89984 0.530971 5.87517 1.11956L1.21469 3.34325C1.1972 3.35201 1.17906 3.36139 1.16219 3.37138C0.056202 4.00376 -0.327753 5.41299 0.304633 6.51898C0.518993 6.89391 0.834307 7.20111 1.21469 7.40566L2.50029 8.01815V11.0806C2.50105 12.45 3.39209 13.6598 4.69961 14.0667C5.60952 14.33 6.553 14.4588 7.50017 14.4492C8.4472 14.4598 9.39068 14.3321 10.3007 14.0699C11.6082 13.6629 12.4993 12.4531 12.5001 11.0837V8.01689L13.75 7.4194V12.5743C13.75 12.9194 14.0298 13.1992 14.375 13.1992C14.7202 13.1992 15 12.9194 15 12.5743V5.07445C15.0041 4.34055 14.4247 3.66258 13.7856 3.34325ZM11.25 11.0837C11.2504 11.9028 10.7189 12.6273 9.93758 12.873C9.14524 13.0994 8.32415 13.2093 7.50014 13.1993C6.67613 13.2093 5.85505 13.0994 5.0627 12.873C4.28135 12.6273 3.74992 11.9028 3.75024 11.0837V8.61377L5.82332 9.60126C6.33483 9.905 6.91902 10.0646 7.51391 10.0631C8.08015 10.0671 8.63686 9.91721 9.12449 9.62938L11.25 8.61374V11.0837ZM13.25 6.27755L8.53638 8.52749C7.87915 8.91019 7.06451 8.89935 6.41768 8.49937L1.80591 6.30568C1.29185 6.02848 1.09985 5.38704 1.37705 4.87301C1.47079 4.69916 1.61136 4.55506 1.7828 4.45697L6.46704 2.21954C7.12448 1.8377 7.93868 1.84851 8.58574 2.24767L13.1944 4.44323C13.5333 4.63143 13.7453 4.98682 13.75 5.37447C13.7506 5.74167 13.5615 6.08314 13.25 6.27755Z" fill="#374957"/>
</svg>
