<svg width="14" height="15" viewBox="0 0 14 15" fill="none" xmlns="http://www.w3.org/2000/svg">
<g clip-path="url(#clip0_311_11733)">
<path d="M11.0833 0.651367H2.91667C2.1434 0.652293 1.40208 0.959882 0.855295 1.50666C0.308514 2.05344 0.00092625 2.79477 0 3.56803L0 10.568C0.00092625 11.3413 0.308514 12.0826 0.855295 12.6294C1.40208 13.1762 2.1434 13.4838 2.91667 13.4847H11.0833C11.8566 13.4838 12.5979 13.1762 13.1447 12.6294C13.6915 12.0826 13.9991 11.3413 14 10.568V3.56803C13.9991 2.79477 13.6915 2.05344 13.1447 1.50666C12.5979 0.959882 11.8566 0.652293 11.0833 0.651367ZM2.91667 1.81803H11.0833C11.5475 1.81803 11.9926 2.00241 12.3208 2.3306C12.649 2.65879 12.8333 3.1039 12.8333 3.56803V4.15137H1.16667V3.56803C1.16667 3.1039 1.35104 2.65879 1.67923 2.3306C2.00742 2.00241 2.45254 1.81803 2.91667 1.81803ZM11.0833 12.318H2.91667C2.45254 12.318 2.00742 12.1337 1.67923 11.8055C1.35104 11.4773 1.16667 11.0322 1.16667 10.568V5.31803H12.8333V10.568C12.8333 11.0322 12.649 11.4773 12.3208 11.8055C11.9926 12.1337 11.5475 12.318 11.0833 12.318ZM11.0833 7.65137C11.0833 7.80608 11.0219 7.95445 10.9125 8.06385C10.8031 8.17324 10.6547 8.2347 10.5 8.2347H3.5C3.34529 8.2347 3.19692 8.17324 3.08752 8.06385C2.97812 7.95445 2.91667 7.80608 2.91667 7.65137C2.91667 7.49666 2.97812 7.34828 3.08752 7.23889C3.19692 7.12949 3.34529 7.06803 3.5 7.06803H10.5C10.6547 7.06803 10.8031 7.12949 10.9125 7.23889C11.0219 7.34828 11.0833 7.49666 11.0833 7.65137ZM8.75 9.9847C8.75 10.1394 8.68854 10.2878 8.57915 10.3972C8.46975 10.5066 8.32138 10.568 8.16667 10.568H3.5C3.34529 10.568 3.19692 10.5066 3.08752 10.3972C2.97812 10.2878 2.91667 10.1394 2.91667 9.9847C2.91667 9.82999 2.97812 9.68162 3.08752 9.57222C3.19692 9.46282 3.34529 9.40137 3.5 9.40137H8.16667C8.32138 9.40137 8.46975 9.46282 8.57915 9.57222C8.68854 9.68162 8.75 9.82999 8.75 9.9847ZM1.75 2.9847C1.75 2.86933 1.78421 2.75655 1.84831 2.66062C1.91241 2.56469 2.00351 2.48992 2.1101 2.44577C2.21669 2.40162 2.33398 2.39007 2.44714 2.41258C2.56029 2.43508 2.66423 2.49064 2.74581 2.57222C2.82739 2.6538 2.88295 2.75774 2.90546 2.8709C2.92797 2.98405 2.91641 3.10134 2.87226 3.20793C2.82811 3.31452 2.75334 3.40563 2.65742 3.46972C2.56149 3.53382 2.44871 3.56803 2.33333 3.56803C2.17862 3.56803 2.03025 3.50658 1.92085 3.39718C1.81146 3.28778 1.75 3.13941 1.75 2.9847ZM3.5 2.9847C3.5 2.86933 3.53421 2.75655 3.59831 2.66062C3.66241 2.56469 3.75351 2.48992 3.8601 2.44577C3.96669 2.40162 4.08398 2.39007 4.19714 2.41258C4.31029 2.43508 4.41423 2.49064 4.49581 2.57222C4.57739 2.6538 4.63295 2.75774 4.65546 2.8709C4.67797 2.98405 4.66641 3.10134 4.62226 3.20793C4.57811 3.31452 4.50334 3.40563 4.40742 3.46972C4.31149 3.53382 4.19871 3.56803 4.08333 3.56803C3.92862 3.56803 3.78025 3.50658 3.67085 3.39718C3.56146 3.28778 3.5 3.13941 3.5 2.9847ZM5.25 2.9847C5.25 2.86933 5.28421 2.75655 5.34831 2.66062C5.41241 2.56469 5.50351 2.48992 5.6101 2.44577C5.71669 2.40162 5.83398 2.39007 5.94714 2.41258C6.06029 2.43508 6.16423 2.49064 6.24581 2.57222C6.32739 2.6538 6.38295 2.75774 6.40546 2.8709C6.42797 2.98405 6.41641 3.10134 6.37226 3.20793C6.32811 3.31452 6.25334 3.40563 6.15742 3.46972C6.06149 3.53382 5.94871 3.56803 5.83333 3.56803C5.67862 3.56803 5.53025 3.50658 5.42085 3.39718C5.31146 3.28778 5.25 3.13941 5.25 2.9847Z" fill="#374957"/>
</g>
<defs>
<clipPath id="clip0_311_11733">
<rect width="14" height="14" fill="white" transform="translate(0 0.0678711)"/>
</clipPath>
</defs>
</svg>
