<svg width="28" height="28" viewBox="0 0 28 28" fill="none" xmlns="http://www.w3.org/2000/svg">
<path d="M25.3607 18.6726C25.3607 22.8471 22.8722 25.3367 18.6966 25.3367H17.3324C17.0286 25.3358 16.7374 25.2147 16.5225 24.9998C16.3077 24.785 16.1866 24.4938 16.1857 24.19V17.5735C16.1857 17.4235 16.2446 17.2796 16.3498 17.1727C16.455 17.0659 16.598 17.0047 16.7479 17.0023L18.7666 16.968C18.8456 16.9629 18.9208 16.9323 18.9808 16.8808C19.0409 16.8293 19.0827 16.7597 19.0998 16.6824L19.5011 14.4928C19.5089 14.4431 19.5059 14.3923 19.4922 14.344C19.4785 14.2956 19.4545 14.2508 19.4218 14.2126C19.389 14.1744 19.3484 14.1438 19.3027 14.1229C19.2569 14.102 19.2072 14.0913 19.1569 14.0915L16.7141 14.1258C16.5627 14.1264 16.417 14.068 16.3078 13.9631C16.1986 13.8582 16.1345 13.7149 16.1291 13.5636L16.0815 10.7552C16.0817 10.664 16.1181 10.5766 16.1825 10.5121C16.247 10.4476 16.3344 10.4113 16.4256 10.411L19.1784 10.3634C19.2242 10.3644 19.2698 10.3559 19.3123 10.3387C19.3548 10.3214 19.3934 10.2957 19.4256 10.263C19.4579 10.2304 19.4832 10.1915 19.4999 10.1488C19.5166 10.1061 19.5245 10.0604 19.523 10.0145L19.4754 7.26178C19.4762 7.21636 19.4679 7.17123 19.4509 7.12909C19.4339 7.08696 19.4086 7.04869 19.3765 7.01656C19.3443 6.98443 19.3061 6.95912 19.2639 6.94212C19.2218 6.92512 19.1767 6.91679 19.1312 6.91763L16.0348 6.96523C15.5828 6.97211 15.1365 7.06812 14.7216 7.24777C14.3068 7.42742 13.9314 7.68717 13.6171 8.01213C13.3028 8.3371 13.0557 8.7209 12.89 9.14153C12.7243 9.56217 12.6432 10.0114 12.6514 10.4634L12.7085 13.6174C12.7108 13.6929 12.698 13.7682 12.6708 13.8387C12.6437 13.9092 12.6027 13.9736 12.5503 14.028C12.498 14.0825 12.4353 14.126 12.3659 14.1559C12.2965 14.1859 12.2219 14.2017 12.1463 14.2024L10.7702 14.2253C10.7248 14.2244 10.6796 14.2328 10.6375 14.2497C10.5954 14.2667 10.5571 14.2921 10.525 14.3242C10.4929 14.3563 10.4675 14.3946 10.4505 14.4367C10.4335 14.4789 10.4252 14.524 10.426 14.5694L10.4603 16.7486C10.4595 16.794 10.4678 16.8391 10.4848 16.8813C10.5018 16.9234 10.5271 16.9617 10.5593 16.9938C10.5914 17.0259 10.6297 17.0512 10.6718 17.0682C10.7139 17.0852 10.759 17.0936 10.8045 17.0927L12.1806 17.0699C12.3322 17.0686 12.4783 17.1265 12.588 17.2312C12.6976 17.3359 12.7622 17.4791 12.768 17.6306L12.8713 24.1681C12.8742 24.3205 12.8467 24.4721 12.7904 24.6138C12.7341 24.7556 12.6501 24.8847 12.5434 24.9936C12.4366 25.1025 12.3092 25.1891 12.1686 25.2482C12.0281 25.3074 11.8771 25.3379 11.7246 25.3381H9.08705C4.91248 25.3381 2.42297 22.8495 2.42297 18.6631V9.06251C2.42297 4.88699 4.91153 2.39844 9.08705 2.39844H18.6971C22.8717 2.39844 25.3612 4.88699 25.3612 9.06251L25.3607 18.6726Z" fill="white"/>
</svg>
