<svg width="23" height="23" viewBox="0 0 23 23" fill="none" xmlns="http://www.w3.org/2000/svg">
<g opacity="0.98">
<path d="M17.9932 4.52441C17.8872 4.52441 17.7837 4.55582 17.6956 4.61466C17.6076 4.67351 17.5389 4.75714 17.4984 4.85499C17.4579 4.95284 17.4473 5.06051 17.4679 5.16439C17.4886 5.26827 17.5396 5.36369 17.6145 5.43858C17.6894 5.51347 17.7848 5.56447 17.8887 5.58514C17.9926 5.6058 18.1002 5.5952 18.1981 5.55466C18.2959 5.51413 18.3796 5.44549 18.4384 5.35743C18.4972 5.26937 18.5287 5.16583 18.5287 5.05992C18.5285 4.91793 18.4721 4.7818 18.3717 4.6814C18.2713 4.581 18.1351 4.52454 17.9932 4.52441Z" fill="white"/>
<path d="M11.5812 6.72266C10.6422 6.72266 9.72426 7.0011 8.9435 7.52278C8.16275 8.04447 7.55424 8.78595 7.19489 9.65348C6.83555 10.521 6.74153 11.4756 6.92472 12.3966C7.10791 13.3175 7.56008 14.1635 8.22406 14.8274C8.88803 15.4914 9.73399 15.9436 10.6549 16.1268C11.5759 16.31 12.5305 16.216 13.398 15.8566C14.2656 15.4973 15.007 14.8888 15.5287 14.108C16.0504 13.3273 16.3288 12.4093 16.3288 11.4703C16.3273 10.2116 15.8267 9.00492 14.9366 8.11489C14.0466 7.22485 12.8399 6.72417 11.5812 6.72266Z" fill="white"/>
<path d="M16.5643 0.442383H6.59721C4.99464 0.444775 3.45839 1.08245 2.3252 2.21564C1.19201 3.34883 0.554333 4.88508 0.551941 6.48765L0.551941 16.4542C0.554208 18.0569 1.19185 19.5932 2.32506 20.7264C3.45828 21.8596 4.9946 22.4972 6.59721 22.4995H16.5643C18.1669 22.4972 19.7032 21.8596 20.8364 20.7264C21.9696 19.5932 22.6073 18.0569 22.6095 16.4542V6.48765C22.6073 4.88504 21.9696 3.34872 20.8364 2.2155C19.7032 1.08229 18.1669 0.444649 16.5643 0.442383ZM11.5815 17.5224C10.3848 17.5224 9.21498 17.1675 8.21998 16.5027C7.22498 15.8379 6.44947 14.8929 5.99152 13.7873C5.53357 12.6817 5.41375 11.4652 5.64721 10.2915C5.88067 9.11782 6.45693 8.03972 7.30311 7.19355C8.14928 6.34737 9.22738 5.77111 10.4011 5.53765C11.5747 5.30419 12.7913 5.42402 13.8969 5.88196C15.0025 6.33991 15.9474 7.11542 16.6123 8.11042C17.2771 9.10542 17.632 10.2752 17.632 11.4719C17.6302 13.076 16.9922 14.614 15.8579 15.7483C14.7236 16.8826 13.1856 17.5206 11.5815 17.5224ZM17.9937 6.89796C17.6301 6.89834 17.2744 6.79084 16.9719 6.58908C16.6693 6.38731 16.4334 6.10033 16.294 5.76445C16.1545 5.42857 16.1179 5.05889 16.1886 4.70216C16.2593 4.34543 16.4342 4.0177 16.6912 3.76041C16.9483 3.50312 17.2758 3.32785 17.6325 3.25676C17.9891 3.18568 18.3589 3.22197 18.6949 3.36105C19.0309 3.50014 19.3181 3.73576 19.5202 4.03811C19.7223 4.34047 19.8302 4.69596 19.8302 5.05963C19.8296 5.54662 19.6361 6.01356 19.292 6.35813C18.9479 6.70271 18.4812 6.89683 17.9942 6.89796H17.9937Z" fill="white"/>
</g>
</svg>
