<svg width="17" height="17" viewBox="0 0 17 17" fill="none" xmlns="http://www.w3.org/2000/svg">
<g clip-path="url(#clip0_138_4478)">
<path d="M14.1668 5.6666C14.1688 4.74921 13.9481 3.84504 13.5235 3.0318C13.099 2.21855 12.4833 1.52054 11.7295 0.997741C10.9756 0.47494 10.1061 0.142982 9.19564 0.0303899C8.28518 -0.0822024 7.36099 0.0279375 6.5025 0.351346C5.644 0.674755 4.87685 1.20176 4.26698 1.88708C3.65711 2.57241 3.22274 3.39556 3.0012 4.2858C2.77967 5.17604 2.77758 6.10676 2.99513 6.99799C3.21268 7.88922 3.64335 8.7143 4.25015 9.40235V15.2291C4.25014 15.5627 4.34436 15.8895 4.52196 16.1719C4.69955 16.4543 4.9533 16.6807 5.25397 16.8252C5.55465 16.9697 5.89002 17.0263 6.22146 16.9886C6.5529 16.9508 6.86694 16.8202 7.1274 16.6118L8.27915 15.6909C8.34191 15.6408 8.41984 15.6135 8.50015 15.6135C8.58046 15.6135 8.65839 15.6408 8.72115 15.6909L9.8729 16.6118C10.1334 16.8202 10.4474 16.9508 10.7788 16.9886C11.1103 17.0263 11.4457 16.9697 11.7463 16.8252C12.047 16.6807 12.3007 16.4543 12.4783 16.1719C12.6559 15.8895 12.7502 15.5627 12.7501 15.2291V9.40235C13.6627 8.37186 14.1666 7.04306 14.1668 5.6666ZM8.50015 1.4166C9.34072 1.4166 10.1624 1.66586 10.8613 2.13285C11.5602 2.59985 12.105 3.26361 12.4266 4.04019C12.7483 4.81678 12.8325 5.67131 12.6685 6.49573C12.5045 7.32015 12.0997 8.07743 11.5054 8.6718C10.911 9.26618 10.1537 9.67095 9.32928 9.83494C8.50486 9.99892 7.65033 9.91476 6.87374 9.59309C6.09716 9.27141 5.4334 8.72668 4.9664 8.02777C4.49941 7.32886 4.25015 6.50717 4.25015 5.6666C4.25127 4.53977 4.6994 3.45942 5.49619 2.66264C6.29297 1.86585 7.37332 1.41772 8.50015 1.4166ZM11.133 15.5464C11.0731 15.5761 11.0059 15.5879 10.9394 15.5804C10.8729 15.5728 10.8101 15.5463 10.7583 15.5039L9.60657 14.5831C9.29309 14.3306 8.90267 14.1929 8.50015 14.1929C8.09762 14.1929 7.70721 14.3306 7.39373 14.5831L6.24269 15.5039C6.19072 15.5457 6.12802 15.5719 6.06182 15.5796C5.99562 15.5872 5.92859 15.5761 5.86844 15.5474C5.80829 15.5187 5.75746 15.4736 5.72179 15.4173C5.68613 15.361 5.66707 15.2957 5.66682 15.2291V10.5668C6.52671 11.0688 7.5045 11.3332 8.50015 11.3332C9.4958 11.3332 10.4736 11.0688 11.3335 10.5668V15.2291C11.3343 15.2957 11.3158 15.3611 11.2802 15.4174C11.2446 15.4737 11.1935 15.5185 11.133 15.5464Z" fill="#374957"/>
</g>
<defs>
<clipPath id="clip0_138_4478">
<rect width="17" height="17" fill="white"/>
</clipPath>
</defs>
</svg>
