<svg width="12" height="12" viewBox="0 0 12 12" fill="none" xmlns="http://www.w3.org/2000/svg">
<path d="M2.45725 9.14244C2.36485 9.14182 2.2764 9.10485 2.21106 9.0395C2.14571 8.97416 2.10873 8.88571 2.10812 8.79331V3.67275C2.10812 1.61987 2.7319 0.996094 4.78478 0.996094H8.04331C10.0962 0.996094 10.72 1.61987 10.72 3.67275V8.3278C10.72 8.40228 10.72 8.47211 10.7153 8.54659C10.7136 8.59341 10.7025 8.6394 10.6827 8.68185C10.6628 8.7243 10.6347 8.76234 10.5999 8.79372C10.5651 8.82509 10.5244 8.84916 10.4801 8.8645C10.4358 8.87984 10.389 8.88614 10.3422 8.88302C10.2955 8.87991 10.2498 8.86744 10.208 8.84636C10.1661 8.82528 10.129 8.79601 10.0986 8.7603C10.0683 8.72458 10.0455 8.68315 10.0315 8.63844C10.0174 8.59373 10.0125 8.54667 10.0171 8.50004C10.0217 8.44418 10.0217 8.38366 10.0217 8.3278V3.67275C10.0217 2.0109 9.70982 1.69435 8.04331 1.69435H4.78478C3.11827 1.69435 2.80638 2.0109 2.80638 3.67275V8.79331C2.80577 8.88571 2.76879 8.97416 2.70345 9.0395C2.63811 9.10485 2.54966 9.14182 2.45725 9.14244Z" fill="#707070"/>
<path d="M8.74157 11.0046H4.08652C3.56216 11.0035 3.05959 10.7947 2.68881 10.424C2.31802 10.0532 2.10923 9.55061 2.10812 9.02625V8.72367C2.10812 8.27922 2.28468 7.85296 2.59896 7.53869C2.91324 7.22441 3.33949 7.04785 3.78394 7.04785H10.3708C10.4632 7.04846 10.5517 7.08544 10.617 7.15078C10.6824 7.21613 10.7194 7.30457 10.72 7.39698V9.02625C10.7189 9.55061 10.5101 10.0532 10.1393 10.424C9.76851 10.7947 9.26594 11.0035 8.74157 11.0046ZM3.78394 7.74611C3.52468 7.74611 3.27603 7.8491 3.0927 8.03243C2.90937 8.21576 2.80638 8.46441 2.80638 8.72367V9.02625C2.80626 9.19439 2.83929 9.36091 2.90358 9.51628C2.96787 9.67165 3.06216 9.81282 3.18105 9.93172C3.29995 10.0506 3.44112 10.1449 3.59649 10.2092C3.75186 10.2735 3.91838 10.3065 4.08652 10.3064H8.74157C8.90972 10.3065 9.07624 10.2735 9.23161 10.2092C9.38697 10.1449 9.52814 10.0506 9.64704 9.93172C9.76594 9.81282 9.86023 9.67165 9.92452 9.51628C9.98881 9.36091 10.0218 9.19439 10.0217 9.02625V7.74611H3.78394Z" fill="#707070"/>
<path d="M8.27605 4.0215H4.55201C4.4596 4.02089 4.37116 3.98391 4.30581 3.91857C4.24047 3.85323 4.20349 3.76478 4.20288 3.67237C4.20349 3.57996 4.24047 3.49152 4.30581 3.42617C4.37116 3.36083 4.4596 3.32385 4.55201 3.32324H8.27605C8.36846 3.32385 8.45691 3.36083 8.52225 3.42617C8.58759 3.49152 8.62457 3.57996 8.62518 3.67237C8.62457 3.76478 8.58759 3.85323 8.52225 3.91857C8.45691 3.98391 8.36846 4.02089 8.27605 4.0215Z" fill="#707070"/>
<path d="M6.87954 5.65138H4.55201C4.4596 5.65077 4.37116 5.61379 4.30581 5.54845C4.24047 5.48311 4.20349 5.39466 4.20288 5.30225C4.20349 5.20985 4.24047 5.1214 4.30581 5.05606C4.37116 4.99071 4.4596 4.95373 4.55201 4.95312H6.87954C6.97194 4.95373 7.06039 4.99071 7.12573 5.05606C7.19108 5.1214 7.22805 5.20985 7.22866 5.30225C7.22805 5.39466 7.19108 5.48311 7.12573 5.54845C7.06039 5.61379 6.97194 5.65077 6.87954 5.65138Z" fill="#707070"/>
</svg>
