<svg width="24" height="24" viewBox="0 0 24 24" fill="none" xmlns="http://www.w3.org/2000/svg">
<path d="M20.1561 19.9554H16.7626V14.6413C16.7626 13.3741 16.7403 11.7434 14.9976 11.7434C13.2302 11.7434 12.9594 13.1238 12.9594 14.5518V19.9554H9.56686V9.02679H12.8251V10.52H12.8703C13.1964 9.96267 13.6674 9.50417 14.2334 9.19335C14.7994 8.88254 15.4391 8.73104 16.0843 8.75499C19.5239 8.75499 20.1589 11.0179 20.1589 13.9596L20.1561 19.9554ZM5.73597 7.53261C5.34649 7.53261 4.96576 7.41712 4.64192 7.20074C4.31809 6.98435 4.06568 6.6768 3.91664 6.31697C3.76759 5.95714 3.72859 5.56119 3.80458 5.1792C3.88056 4.79721 4.06811 4.44632 4.34351 4.17092C4.61892 3.89552 4.9698 3.70797 5.35179 3.63198C5.73379 3.556 6.12973 3.595 6.48956 3.74404C6.8494 3.89309 7.15695 4.14549 7.37333 4.46933C7.58971 4.79317 7.70521 5.1739 7.70521 5.56338C7.70527 5.822 7.65438 6.0781 7.55543 6.31705C7.45649 6.55599 7.31144 6.7731 7.12857 6.95598C6.9457 7.13885 6.72859 7.2839 6.48964 7.38284C6.25069 7.48178 5.99459 7.53267 5.73597 7.53261ZM7.43198 19.9563H4.03711V9.02679H7.43388L7.43198 19.9563ZM21.8473 0.443468H2.33111C1.88846 0.439022 1.46213 0.610319 1.14561 0.919786C0.829094 1.22925 0.648239 1.65162 0.642715 2.09425L0.642715 21.69C0.647863 22.133 0.828684 22.5559 1.14545 22.8657C1.46221 23.1755 1.88901 23.3469 2.33206 23.3422H21.8483C22.2922 23.3476 22.7201 23.1767 23.0381 22.8669C23.3561 22.5572 23.5381 22.1338 23.5443 21.69V2.0933C23.5379 1.64962 23.3557 1.2266 23.0377 0.917103C22.7198 0.607606 22.292 0.436922 21.8483 0.442516" fill="white"/>
</svg>
