<svg width="12" height="13" viewBox="0 0 12 13" fill="none" xmlns="http://www.w3.org/2000/svg">
<g clip-path="url(#clip0_791_5162)">
<path d="M6 3.04883C5.60444 3.04883 5.21776 3.16613 4.88886 3.38589C4.55996 3.60565 4.30362 3.91801 4.15224 4.28346C4.00087 4.64891 3.96126 5.05105 4.03843 5.43901C4.1156 5.82697 4.30608 6.18334 4.58579 6.46304C4.86549 6.74275 5.22186 6.93323 5.60982 7.0104C5.99778 7.08757 6.39992 7.04796 6.76537 6.89659C7.13082 6.74521 7.44318 6.48887 7.66294 6.15997C7.8827 5.83107 8 5.44439 8 5.04883C8 4.5184 7.78929 4.00969 7.41421 3.63461C7.03914 3.25954 6.53043 3.04883 6 3.04883ZM6 6.04883C5.80222 6.04883 5.60888 5.99018 5.44443 5.8803C5.27998 5.77042 5.15181 5.61424 5.07612 5.43151C5.00043 5.24879 4.98063 5.04772 5.01922 4.85374C5.0578 4.65976 5.15304 4.48157 5.29289 4.34172C5.43275 4.20187 5.61093 4.10663 5.80491 4.06804C5.99889 4.02946 6.19996 4.04926 6.38268 4.12495C6.56541 4.20064 6.72159 4.32881 6.83147 4.49326C6.94135 4.65771 7 4.85105 7 5.04883C7 5.31404 6.89464 5.5684 6.70711 5.75593C6.51957 5.94347 6.26522 6.04883 6 6.04883Z" fill="white"/>
<path d="M6.00016 12.0489C5.57913 12.051 5.16371 11.9523 4.78869 11.7609C4.41367 11.5695 4.08995 11.291 3.84466 10.9489C1.93916 8.32035 0.972656 6.34435 0.972656 5.07535C0.972656 3.74198 1.50234 2.46321 2.44518 1.52037C3.38802 0.577533 4.66678 0.0478516 6.00016 0.0478516C7.33353 0.0478516 8.6123 0.577533 9.55514 1.52037C10.498 2.46321 11.0277 3.74198 11.0277 5.07535C11.0277 6.34435 10.0612 8.32035 8.15566 10.9489C7.91036 11.291 7.58665 11.5695 7.21162 11.7609C6.8366 11.9523 6.42118 12.051 6.00016 12.0489V12.0489ZM6.00016 1.13935C4.95636 1.14054 3.95566 1.55571 3.21759 2.29379C2.47952 3.03186 2.06435 4.03256 2.06316 5.07635C2.06316 6.08135 3.00966 7.93985 4.72766 10.3094C4.8735 10.5102 5.06484 10.6737 5.28601 10.7865C5.50719 10.8992 5.75191 10.958 6.00016 10.958C6.24841 10.958 6.49313 10.8992 6.7143 10.7865C6.93547 10.6737 7.12681 10.5102 7.27266 10.3094C8.99066 7.93985 9.93716 6.08135 9.93716 5.07635C9.93597 4.03256 9.52079 3.03186 8.78272 2.29379C8.04465 1.55571 7.04395 1.14054 6.00016 1.13935V1.13935Z" fill="white"/>
</g>
<defs>
<clipPath id="clip0_791_5162">
<rect width="12" height="12" fill="white" transform="translate(0 0.0488281)"/>
</clipPath>
</defs>
</svg>
