<svg width="12" height="12" viewBox="0 0 12 12" fill="none" xmlns="http://www.w3.org/2000/svg">
<g clip-path="url(#clip0_365_6779)">
<path d="M9.23207 4.36402V3.6945C9.23207 2.82162 8.88532 1.9845 8.26811 1.36728C7.65089 0.750068 6.81377 0.40332 5.94089 0.40332C5.06802 0.40332 4.23089 0.750068 3.61368 1.36728C2.99646 1.9845 2.64972 2.82162 2.64972 3.6945V4.36402C2.23097 4.54677 1.87455 4.84759 1.62404 5.22969C1.37354 5.61179 1.23981 6.05861 1.23921 6.5155V9.33651C1.23996 9.95977 1.48788 10.5573 1.92858 10.998C2.36929 11.4387 2.9668 11.6866 3.59005 11.6874H8.29173C8.91499 11.6866 9.5125 11.4387 9.9532 10.998C10.3939 10.5573 10.6418 9.95977 10.6426 9.33651V6.5155C10.642 6.05861 10.5082 5.61179 10.2577 5.22969C10.0072 4.84759 9.65082 4.54677 9.23207 4.36402V4.36402ZM3.59005 3.6945C3.59005 3.07101 3.83773 2.47307 4.2786 2.0322C4.71947 1.59133 5.31741 1.34366 5.94089 1.34366C6.56437 1.34366 7.16232 1.59133 7.60319 2.0322C8.04406 2.47307 8.29173 3.07101 8.29173 3.6945V4.16466H3.59005V3.6945ZM9.70224 9.33651C9.70224 9.7106 9.55363 10.0694 9.28911 10.3339C9.02459 10.5984 8.66582 10.747 8.29173 10.747H3.59005C3.21596 10.747 2.8572 10.5984 2.59268 10.3339C2.32815 10.0694 2.17955 9.7106 2.17955 9.33651V6.5155C2.17955 6.14142 2.32815 5.78265 2.59268 5.51813C2.8572 5.25361 3.21596 5.105 3.59005 5.105H8.29173C8.66582 5.105 9.02459 5.25361 9.28911 5.51813C9.55363 5.78265 9.70224 6.14142 9.70224 6.5155V9.33651Z" fill="#374957"/>
<path d="M5.9409 6.98535C5.8162 6.98535 5.69661 7.03489 5.60844 7.12306C5.52026 7.21123 5.47073 7.33082 5.47073 7.45552V8.39585C5.47073 8.52055 5.52026 8.64014 5.60844 8.72831C5.69661 8.81649 5.8162 8.86602 5.9409 8.86602C6.06559 8.86602 6.18518 8.81649 6.27336 8.72831C6.36153 8.64014 6.41107 8.52055 6.41107 8.39585V7.45552C6.41107 7.33082 6.36153 7.21123 6.27336 7.12306C6.18518 7.03489 6.06559 6.98535 5.9409 6.98535Z" fill="#374957"/>
</g>
<defs>
<clipPath id="clip0_365_6779">
<rect width="11.284" height="11.284" fill="white" transform="translate(0.298912 0.40332)"/>
</clipPath>
</defs>
</svg>
