<svg width="31" height="30" viewBox="0 0 31 30" fill="none" xmlns="http://www.w3.org/2000/svg">
<path d="M3.67236 6C5.32922 6 6.67236 4.65685 6.67236 3C6.67236 1.34315 5.32922 0 3.67236 0C2.01551 0 0.672363 1.34315 0.672363 3C0.672363 4.65685 2.01551 6 3.67236 6Z" fill="black"/>
<path d="M3.67236 18C5.32922 18 6.67236 16.6569 6.67236 15C6.67236 13.3431 5.32922 12 3.67236 12C2.01551 12 0.672363 13.3431 0.672363 15C0.672363 16.6569 2.01551 18 3.67236 18Z" fill="black"/>
<path d="M3.67236 30C5.32922 30 6.67236 28.6569 6.67236 27C6.67236 25.3431 5.32922 24 3.67236 24C2.01551 24 0.672363 25.3431 0.672363 27C0.672363 28.6569 2.01551 30 3.67236 30Z" fill="black"/>
<path d="M15.6724 6C17.3292 6 18.6724 4.65685 18.6724 3C18.6724 1.34315 17.3292 0 15.6724 0C14.0155 0 12.6724 1.34315 12.6724 3C12.6724 4.65685 14.0155 6 15.6724 6Z" fill="black"/>
<path d="M15.6724 18C17.3292 18 18.6724 16.6569 18.6724 15C18.6724 13.3431 17.3292 12 15.6724 12C14.0155 12 12.6724 13.3431 12.6724 15C12.6724 16.6569 14.0155 18 15.6724 18Z" fill="black"/>
<path d="M15.6724 30C17.3292 30 18.6724 28.6569 18.6724 27C18.6724 25.3431 17.3292 24 15.6724 24C14.0155 24 12.6724 25.3431 12.6724 27C12.6724 28.6569 14.0155 30 15.6724 30Z" fill="black"/>
<path d="M27.6724 6C29.3292 6 30.6724 4.65685 30.6724 3C30.6724 1.34315 29.3292 0 27.6724 0C26.0155 0 24.6724 1.34315 24.6724 3C24.6724 4.65685 26.0155 6 27.6724 6Z" fill="black"/>
<path d="M27.6724 18C29.3292 18 30.6724 16.6569 30.6724 15C30.6724 13.3431 29.3292 12 27.6724 12C26.0155 12 24.6724 13.3431 24.6724 15C24.6724 16.6569 26.0155 18 27.6724 18Z" fill="black"/>
<path d="M27.6724 30C29.3292 30 30.6724 28.6569 30.6724 27C30.6724 25.3431 29.3292 24 27.6724 24C26.0155 24 24.6724 25.3431 24.6724 27C24.6724 28.6569 26.0155 30 27.6724 30Z" fill="black"/>
</svg>
