<svg width="16" height="17" viewBox="0 0 16 17" fill="none" xmlns="http://www.w3.org/2000/svg">
<path d="M15.3333 7.83325H0.666667C0.298477 7.83325 0 8.13173 0 8.49992C0 8.86811 0.298477 9.16659 0.666667 9.16659H15.3333C15.7015 9.16659 16 8.86811 16 8.49992C16 8.13173 15.7015 7.83325 15.3333 7.83325Z" fill="#374957"/>
<path d="M15.3333 3.16675H0.666667C0.298477 3.16675 0 3.46522 0 3.83341C0 4.2016 0.298477 4.50008 0.666667 4.50008H15.3333C15.7015 4.50008 16 4.2016 16 3.83341C16 3.46522 15.7015 3.16675 15.3333 3.16675Z" fill="#374957"/>
<path d="M15.3333 12.5H0.666667C0.298477 12.5 0 12.7985 0 13.1667C0 13.5349 0.298477 13.8333 0.666667 13.8333H15.3333C15.7015 13.8333 16 13.5349 16 13.1667C16 12.7985 15.7015 12.5 15.3333 12.5Z" fill="#374957"/>
</svg>
