<svg width="15" height="16" viewBox="0 0 15 16" fill="none" xmlns="http://www.w3.org/2000/svg">
<path d="M3.94823 13.7417C3.5749 13.7417 3.23267 13.6503 2.92156 13.4675C2.61045 13.2848 2.36351 13.0378 2.18073 12.7267C1.99795 12.4156 1.90656 12.0734 1.90656 11.7C1.90656 11.3267 1.99795 10.9845 2.18073 10.6734C2.36351 10.3623 2.61045 10.1153 2.92156 9.93253C3.23267 9.74975 3.5749 9.65837 3.94823 9.65837C4.40712 9.65837 4.81545 9.79448 5.17323 10.0667C5.53101 10.3389 5.77601 10.6889 5.90823 11.1167H9.19823V9.95003H10.3649V6.59003L9.05823 5.28337H5.69823V6.45003H2.19823V2.95003H5.69823V4.1167H9.05823L10.9482 2.2267L13.4216 4.70003L11.5316 6.59003V9.95003H12.6982V13.45H9.19823V12.2834H5.90823C5.77601 12.7111 5.53101 13.0611 5.17323 13.3334C4.81545 13.6056 4.40712 13.7417 3.94823 13.7417ZM3.94823 10.825C3.70712 10.825 3.50101 10.9106 3.3299 11.0817C3.15878 11.2528 3.07323 11.4589 3.07323 11.7C3.07323 11.9411 3.15878 12.1473 3.3299 12.3184C3.50101 12.4895 3.70712 12.575 3.94823 12.575C4.18934 12.575 4.39545 12.4895 4.56656 12.3184C4.73767 12.1473 4.82323 11.9411 4.82323 11.7C4.82323 11.4589 4.73767 11.2528 4.56656 11.0817C4.39545 10.9106 4.18934 10.825 3.94823 10.825ZM11.5316 11.1167H10.3649V12.2834H11.5316V11.1167ZM10.9482 3.8717L10.1199 4.70003L10.9482 5.52837L11.7766 4.70003L10.9482 3.8717ZM4.53156 4.1167H3.3649V5.28337H4.53156V4.1167Z" fill="#6D7289"/>
</svg>
