<svg width="32" height="32" viewBox="0 0 32 32" fill="none" xmlns="http://www.w3.org/2000/svg">
<path d="M20.0807 15.1356C19.9206 15.1352 19.763 15.0957 19.6217 15.0205C19.4804 14.9452 19.3596 14.8366 19.2699 14.704L15.0862 8.45501C14.943 8.23905 14.8913 7.97509 14.9424 7.72104C14.9944 7.46499 15.1457 7.23996 15.3632 7.09521L22.7607 2.13943C23.0431 1.948 23.3609 1.81478 23.6955 1.74757C24.03 1.68036 24.3746 1.6805 24.7091 1.74798C25.0445 1.81264 25.3638 1.94293 25.6488 2.13136C25.9337 2.3198 26.1786 2.56266 26.3693 2.846L28.7489 6.38913C28.9393 6.67303 29.0718 6.99175 29.1387 7.327C29.2057 7.66224 29.2057 8.0074 29.1389 8.34267C29.072 8.67793 28.9396 8.99669 28.7493 9.28064C28.5589 9.5646 28.3143 9.80816 28.0296 9.99733L20.6429 14.9526C20.4804 15.0732 20.283 15.1374 20.0807 15.1356ZM17.2715 8.18051L20.3542 12.7957L26.9306 8.39189C27.0018 8.34611 27.063 8.28633 27.1104 8.21617C27.1578 8.14601 27.1904 8.06695 27.2063 7.98378C27.2222 7.90062 27.221 7.8151 27.2028 7.73241C27.1846 7.64973 27.1497 7.57161 27.1004 7.50281L24.7218 3.95772C24.6278 3.816 24.4816 3.71721 24.315 3.68293C24.1484 3.64864 23.9751 3.68164 23.8327 3.77472L17.2715 8.18051Z" fill="white"/>
<path d="M13.426 18.6921C13.2659 18.6917 13.1083 18.6522 12.967 18.577C12.8257 18.5017 12.7049 18.3931 12.6152 18.2605L9.26829 13.2661C9.19634 13.159 9.14635 13.0387 9.1212 12.9122C9.09605 12.7856 9.09624 12.6554 9.12177 12.5289C9.1473 12.4025 9.19766 12.2823 9.26992 12.1754C9.34219 12.0686 9.43494 11.9771 9.54279 11.9063L15.7923 7.72266C16.0083 7.57942 16.2722 7.52768 16.5263 7.5788C16.6537 7.60285 16.7749 7.65256 16.8824 7.7249C16.99 7.79724 17.0818 7.8907 17.1521 7.99961L20.499 12.9906C20.571 13.0977 20.621 13.218 20.6461 13.3445C20.6713 13.4711 20.6711 13.6013 20.6455 13.7278C20.62 13.8543 20.5697 13.9744 20.4974 14.0813C20.4251 14.1882 20.3324 14.2796 20.2245 14.3504L13.975 18.535C13.8098 18.6365 13.6199 18.6908 13.426 18.6921ZM11.4384 12.9906L13.6892 16.3507L18.3015 13.2661L16.0507 9.89326L11.4384 12.9906Z" fill="white"/>
<path d="M7.33304 22.0648C6.95559 22.065 6.58391 21.9721 6.251 21.7942C5.9181 21.6163 5.63427 21.359 5.42472 21.045L3.94699 18.8485C3.77984 18.5997 3.66371 18.3202 3.60534 18.0263C3.54696 17.7323 3.5475 17.4297 3.60691 17.1359C3.66295 16.8415 3.77749 16.5614 3.94373 16.3121C4.10998 16.0628 4.32457 15.8494 4.57478 15.6846L9.739 12.233C9.84607 12.1611 9.96633 12.1112 10.0928 12.0861C10.2193 12.0609 10.3495 12.0612 10.4759 12.0867C10.6023 12.1122 10.7224 12.1625 10.8292 12.2348C10.9361 12.307 11.0275 12.3997 11.0983 12.5075L14.0269 16.8741C14.0988 16.9812 14.1488 17.1015 14.174 17.228C14.1991 17.3546 14.1989 17.4848 14.1734 17.6113C14.1478 17.7378 14.0975 17.8579 14.0252 17.9648C13.953 18.0716 13.8602 18.1631 13.7524 18.2339L8.58813 21.6855C8.21512 21.9304 7.77923 22.0621 7.33304 22.0648ZM10.0135 14.3903L5.6728 17.2925C5.6008 17.3417 5.55091 17.4171 5.53381 17.5026C5.51671 17.5881 5.53375 17.6769 5.5813 17.75L7.05854 19.945C7.10772 20.017 7.18314 20.0669 7.26864 20.084C7.35415 20.1011 7.44295 20.0841 7.51605 20.0365L11.8568 17.1339L10.0135 14.3903Z" fill="white"/>
<path d="M10.3156 29.8177C10.1749 29.8191 10.0357 29.7879 9.90898 29.7267C9.79206 29.6737 9.68676 29.5981 9.59912 29.5043C9.51147 29.4105 9.44321 29.3003 9.39825 29.1801C9.35329 29.0598 9.33251 28.9319 9.33711 28.8036C9.34171 28.6753 9.37159 28.5492 9.42505 28.4325L15.2968 15.6202C15.3453 15.4963 15.4185 15.3836 15.512 15.289C15.6055 15.1943 15.7173 15.1197 15.8406 15.0697C15.9639 15.0197 16.0961 14.9954 16.2291 14.9983C16.3621 15.0011 16.4932 15.031 16.6142 15.0862C16.7353 15.1414 16.8438 15.2207 16.9332 15.3193C17.0226 15.4179 17.0909 15.5336 17.134 15.6595C17.1772 15.7854 17.1942 15.9187 17.184 16.0513C17.1739 16.184 17.1368 16.3132 17.075 16.431L11.2032 29.2432C11.1258 29.4139 11.001 29.5588 10.8437 29.6607C10.6863 29.7625 10.503 29.817 10.3156 29.8177Z" fill="white"/>
<path d="M21.9239 29.8176C21.7354 29.8204 21.5504 29.7672 21.3921 29.6647C21.2339 29.5623 21.1095 29.4153 21.0348 29.2422L15.2301 16.43C15.124 16.1941 15.1152 15.9258 15.2058 15.6835C15.2963 15.4411 15.4788 15.2443 15.7136 15.1357C15.9497 15.0308 16.2175 15.0228 16.4596 15.1133C16.7016 15.2038 16.8984 15.3856 17.0078 15.6197L22.813 28.4319C22.9191 28.6679 22.9278 28.9362 22.8372 29.1785C22.7466 29.4208 22.564 29.6176 22.3291 29.7261C22.2033 29.7887 22.0644 29.82 21.9239 29.8176Z" fill="white"/>
</svg>
