<svg width="12" height="12" viewBox="0 0 12 12" fill="none" xmlns="http://www.w3.org/2000/svg">
<path d="M5.91254 10.3104H2.94027C1.45414 10.3104 0.960327 9.32278 0.960327 8.33045V4.37057C0.960327 2.88443 1.45414 2.39062 2.94027 2.39062H5.91254C7.39867 2.39062 7.89248 2.88443 7.89248 4.37057V8.33045C7.89248 9.81659 7.39397 10.3104 5.91254 10.3104Z" stroke="#292D32" stroke-width="0.705443" stroke-linecap="round" stroke-linejoin="round"/>
<path d="M9.19988 8.74884L7.89246 7.83177V4.86421L9.19988 3.94713C9.83948 3.50035 10.3662 3.77312 10.3662 4.55851V8.14216C10.3662 8.92756 9.83948 9.20033 9.19988 8.74884Z" stroke="#292D32" stroke-width="0.705443" stroke-linecap="round" stroke-linejoin="round"/>
<path d="M6.13354 5.17517C6.13354 5.31469 6.09217 5.45108 6.01465 5.56709C5.93714 5.6831 5.82696 5.77352 5.69806 5.82691C5.56916 5.88031 5.42732 5.89428 5.29047 5.86706C5.15363 5.83984 5.02793 5.77265 4.92928 5.67399C4.83062 5.57533 4.76343 5.44964 4.73621 5.31279C4.70899 5.17595 4.72296 5.03411 4.77636 4.90521C4.82975 4.77631 4.92017 4.66613 5.03618 4.58862C5.15219 4.5111 5.28858 4.46973 5.4281 4.46973C5.61519 4.46973 5.79463 4.54405 5.92692 4.67635C6.05922 4.80864 6.13354 4.98807 6.13354 5.17517Z" stroke="#292D32" stroke-width="0.705443" stroke-linecap="round" stroke-linejoin="round"/>
</svg>
