<svg width="32" height="32" viewBox="0 0 32 32" fill="none" xmlns="http://www.w3.org/2000/svg">
<path d="M20.6009 26.469C20.2494 26.4701 19.8981 26.4529 19.5485 26.4175C18.8039 26.353 18.0657 26.2286 17.341 26.0455L15.1856 25.534C9.26931 24.1331 7.33187 21.0022 8.71782 15.0989L9.97432 9.72208C10.1968 8.67566 10.5417 7.65904 11.0018 6.6932C13.2092 2.13785 17.4334 2.54834 20.4339 3.25287L22.5769 3.75335C25.5798 4.45932 27.4792 5.57578 28.5441 7.28223C29.5966 8.98917 29.7631 11.1836 29.0576 14.1865L27.8002 19.5518C26.6967 24.2486 24.3993 26.469 20.6009 26.469ZM17.149 4.74469C15.0061 4.74469 13.6456 5.63016 12.7347 7.52959C12.3476 8.37187 12.0514 9.25301 11.8511 10.1581L10.5913 15.5354C9.44929 20.3848 10.7708 22.5022 15.6216 23.6572L17.7775 24.1706C18.4146 24.3255 19.0624 24.4328 19.7154 24.4916C23.2058 24.8381 24.9383 23.3111 25.9137 19.1148L27.1712 13.7505C27.7487 11.2736 27.6717 9.54114 26.9017 8.29667C26.1317 7.0522 24.6173 6.20475 22.1279 5.62727L19.984 5.12968C19.0572 4.89154 18.1058 4.76233 17.149 4.74469Z" fill="white"/>
<path d="M11.0017 29.125C7.70382 29.125 5.59891 27.1486 4.25145 22.9782L2.609 17.9089C0.786573 12.2626 2.41651 9.0797 8.03731 7.25775L10.0652 6.60328C10.5949 6.42854 11.1349 6.2871 11.6822 6.17979C11.8582 6.14116 12.0418 6.15458 12.2103 6.21841C12.3789 6.28223 12.5253 6.39372 12.6316 6.53927C12.7388 6.6835 12.8049 6.85406 12.823 7.03283C12.841 7.21161 12.8103 7.39193 12.7342 7.55467C12.3433 8.39073 12.0505 9.26921 11.8617 10.1726L10.6042 15.548C9.46225 20.3988 10.7837 22.5162 15.6345 23.6712L17.7905 24.1847C18.4276 24.3395 19.0754 24.4468 19.7284 24.5056C19.9277 24.5241 20.1166 24.6028 20.2702 24.7311C20.4237 24.8594 20.5347 25.0313 20.5884 25.2241C20.6392 25.4159 20.6294 25.6188 20.5605 25.8048C20.4916 25.9909 20.3669 26.1511 20.2034 26.2636C19.1935 26.9159 18.0961 27.4214 16.944 27.765L14.9165 28.4325C13.654 28.8596 12.3341 29.0931 11.0017 29.125ZM10.2962 8.55371L8.64078 9.09462C4.05944 10.5686 2.96848 12.7246 4.44443 17.3189L6.08688 22.3877C7.57581 26.9691 9.73126 28.0725 14.3131 26.5971L16.3405 25.9296C16.4175 25.9041 16.4815 25.8781 16.5585 25.8526L15.1981 25.5316C9.28226 24.1327 7.34434 21.0018 8.73029 15.0985L9.98823 9.72022C10.0782 9.31118 10.1807 8.9132 10.2962 8.55371Z" fill="white"/>
<path d="M22.7569 14.059C22.6751 14.0562 22.5936 14.0477 22.5129 14.0335L16.2891 12.4551C16.0572 12.379 15.8629 12.2176 15.7455 12.0036C15.628 11.7897 15.5963 11.5391 15.6567 11.3026C15.717 11.0661 15.865 10.8613 16.0706 10.7298C16.2762 10.5983 16.5241 10.5498 16.7641 10.5941L22.9879 12.1726C23.2143 12.2295 23.4121 12.3671 23.5442 12.5595C23.6762 12.752 23.7334 12.9861 23.7051 13.2178C23.6767 13.4495 23.5647 13.6628 23.3901 13.8177C23.2155 13.9726 22.9903 14.0584 22.7569 14.059Z" fill="white"/>
<path d="M18.997 18.3971C18.9151 18.3941 18.8336 18.3854 18.753 18.3711L15.0186 17.4216C14.889 17.3977 14.7656 17.3473 14.6562 17.2737C14.5469 17.2001 14.4538 17.1049 14.3827 16.9938C14.3117 16.8827 14.2642 16.7583 14.2432 16.6281C14.2223 16.498 14.2283 16.3649 14.2609 16.2371C14.2935 16.1094 14.352 15.9897 14.4328 15.8855C14.5136 15.7813 14.6149 15.6948 14.7305 15.6314C14.846 15.568 14.9734 15.529 15.1047 15.5168C15.236 15.5046 15.3683 15.5196 15.4936 15.5607L19.228 16.5102C19.4744 16.5737 19.6857 16.7322 19.8156 16.9511C19.9454 17.17 19.9833 17.4314 19.9209 17.6781C19.8719 17.8853 19.7535 18.0695 19.5855 18.2002C19.4175 18.3309 19.2098 18.4004 18.997 18.3971Z" fill="white"/>
</svg>
