<svg width="20" height="20" viewBox="0 0 20 20" fill="none" xmlns="http://www.w3.org/2000/svg">
<path d="M20 13.2499C20 10.9166 18.75 9.08325 16.9167 8.16659C17.75 7.33325 18.3333 6.24992 18.3333 4.99992C18.3333 2.66659 16.5 0.833252 14.1667 0.833252C12.4167 0.833252 11 1.83325 10.3333 3.33325C10.25 3.33325 10.0833 3.33325 10 3.33325C9.91667 3.33325 9.75 3.33325 9.66667 3.33325C9 1.83325 7.58333 0.833252 5.83333 0.833252C3.5 0.833252 1.66667 2.66659 1.66667 4.99992C1.66667 6.24992 2.25 7.33325 3.08333 8.16659C1.25 9.08325 0 10.9999 0 13.2499V16.6666H4.16667V19.1666H15.8333V16.6666H20V13.2499ZM14.1667 2.49992C15.5833 2.49992 16.6667 3.58325 16.6667 4.99992C16.6667 6.33325 15.5833 7.49992 14.1667 7.49992C14.1667 5.91659 13.25 4.58325 11.9167 3.83325C12.3333 2.99992 13.1667 2.49992 14.1667 2.49992ZM12.5 7.49992C12.5 8.91659 11.4167 9.99992 10 9.99992C8.58333 9.99992 7.5 8.91659 7.5 7.49992C7.5 6.08325 8.58333 4.99992 10 4.99992C11.4167 4.99992 12.5 6.08325 12.5 7.49992ZM5.83333 2.49992C6.83333 2.49992 7.66667 2.99992 8.08333 3.83325C6.75 4.58325 5.83333 5.91659 5.83333 7.49992C4.41667 7.49992 3.33333 6.41659 3.33333 4.99992C3.33333 3.58325 4.41667 2.49992 5.83333 2.49992ZM4.25 14.9999H1.66667V13.2499C1.66667 10.9166 3.41667 9.16659 5.83333 9.16659C5.91667 9.16659 6 9.16659 6.08333 9.16659C6.33333 9.74992 6.75 10.2499 7.16667 10.6666C5.58333 11.4999 4.5 13.0833 4.25 14.9999ZM14.1667 17.4999H5.83333V15.7499C5.83333 13.4166 7.66667 11.6666 10 11.6666C12.4167 11.6666 14.1667 13.4166 14.1667 15.7499V17.4999ZM18.3333 14.9999H15.75C15.5 13.0833 14.3333 11.4999 12.6667 10.6666C13.1667 10.2499 13.5 9.74992 13.75 9.16659C13.8333 9.16659 13.9167 9.16659 14.0833 9.16659C16.5 9.16659 18.25 10.9166 18.25 13.2499V14.9999H18.3333Z" fill="#757575"/>
</svg>
