<svg width="32" height="33" viewBox="0 0 32 33" fill="none" xmlns="http://www.w3.org/2000/svg">
<path d="M12.384 16.0617H12.2788C12.2005 16.0485 12.1205 16.0485 12.0421 16.0617C10.265 16.0115 8.57902 15.2639 7.34877 13.9805C6.11853 12.6971 5.44289 10.981 5.46796 9.20338C5.49302 7.42574 6.21678 5.7294 7.48272 4.48119C8.74866 3.23297 10.455 2.5332 12.2329 2.5332C14.0107 2.5332 15.7171 3.23297 16.983 4.48119C18.2489 5.7294 18.9727 7.42574 18.9978 9.20338C19.0228 10.981 18.3472 12.6971 17.1169 13.9805C15.8867 15.2639 14.2007 16.0115 12.4236 16.0617H12.384ZM12.1737 4.39848C10.9037 4.39802 9.68433 4.89596 8.77771 5.78522C7.87108 6.67448 7.34965 7.88402 7.32556 9.15373C7.30146 10.4234 7.77662 11.6519 8.64885 12.5749C9.52109 13.4979 10.7207 14.0418 11.9898 14.0895C12.1297 14.076 12.2705 14.076 12.4104 14.0895C13.6758 14.0299 14.8676 13.4773 15.7308 12.5501C16.5939 11.6229 17.0599 10.3947 17.029 9.12828C16.998 7.86185 16.4727 6.65784 15.5652 5.77389C14.6578 4.88993 13.4405 4.39625 12.1737 4.39848Z" fill="white"/>
<path d="M22.0883 16.2326C22.0484 16.2348 22.0084 16.2303 21.97 16.2194C21.7044 16.2493 21.4374 16.1758 21.2245 16.0143C21.0115 15.8528 20.8688 15.6156 20.8259 15.3517C20.8072 15.2265 20.8135 15.0987 20.8444 14.9759C20.8753 14.8531 20.9303 14.7376 21.0061 14.6361C21.0819 14.5346 21.1771 14.4492 21.2861 14.3847C21.3951 14.3203 21.5158 14.278 21.6413 14.2605C21.7993 14.2473 21.97 14.2473 22.1148 14.2473C23.0516 14.19 23.9296 13.7709 24.5634 13.0786C25.1972 12.3863 25.5373 11.4749 25.5119 10.5366C25.4865 9.59838 25.0976 8.70667 24.4273 8.04965C23.757 7.39263 22.8577 7.02169 21.9191 7.0151C21.7901 7.01698 21.6619 6.99319 21.5422 6.94512C21.4224 6.89706 21.3134 6.82566 21.2215 6.7351C21.1295 6.64453 21.0565 6.5366 21.0067 6.41757C20.9568 6.29854 20.9311 6.17079 20.9311 6.04174C20.933 5.78072 21.0376 5.53095 21.2222 5.34643C21.4068 5.16191 21.6566 5.05746 21.9176 5.05566C23.3987 5.05889 24.8183 5.64869 25.8656 6.69599C26.9129 7.74329 27.5027 9.16281 27.5059 10.6439C27.51 12.0916 26.9508 13.4841 25.9467 14.527C24.9426 15.5699 23.5723 16.1814 22.1255 16.2322L22.0883 16.2326Z" fill="white"/>
<path d="M12.3971 30.4343C9.88047 30.4812 7.40443 29.7959 5.27007 28.4617C3.44221 27.2521 2.44293 25.5954 2.44293 23.7939C2.44293 21.9925 3.44221 20.3212 5.27007 19.0984C9.21486 16.4815 15.6053 16.4815 19.5236 19.0984C21.3383 20.308 22.3508 21.9651 22.3508 23.7666C22.3508 25.568 21.3515 27.2393 19.5236 28.4622C17.3886 29.7945 14.9133 30.4795 12.3971 30.4343ZM6.36131 20.7565C5.09888 21.5978 4.41508 22.6763 4.41508 23.8072C4.41508 24.9248 5.11208 26.0028 6.36131 26.8314C9.63551 29.0276 15.1582 29.0276 18.4324 26.8314C19.6948 25.9896 20.3786 24.9116 20.3786 23.7807C20.3786 22.6631 19.6816 21.5846 18.4324 20.7565C15.1602 18.5735 9.63551 18.5735 6.36131 20.7565Z" fill="white"/>
<path d="M24.4542 28.0669C24.2273 28.0682 24.0071 27.99 23.8319 27.8458C23.6567 27.7017 23.5375 27.5008 23.495 27.2779C23.4443 27.0219 23.4958 26.7561 23.6385 26.5375C23.7811 26.3188 24.0037 26.1647 24.2585 26.108C25.0493 25.9572 25.7957 25.6291 26.4415 25.1483C26.7803 24.9258 27.0617 24.6264 27.2628 24.2745C27.4639 23.9226 27.579 23.5282 27.5987 23.1233C27.5802 22.7214 27.4667 22.3295 27.2677 21.9798C27.0687 21.63 26.7898 21.3324 26.4537 21.1111C25.8127 20.639 25.0769 20.3116 24.2971 20.1514C24.1702 20.1229 24.0501 20.0697 23.9438 19.9948C23.8374 19.9199 23.7469 19.8248 23.6773 19.7149C23.5367 19.493 23.49 19.2243 23.5476 18.968C23.6051 18.7116 23.7621 18.4887 23.984 18.3481C24.206 18.2075 24.4747 18.1609 24.731 18.2184C25.7889 18.4364 26.7857 18.8854 27.6501 19.5332C28.2284 19.9398 28.7033 20.4764 29.0367 21.0998C29.3701 21.7232 29.5527 22.4161 29.5699 23.1228C29.5488 23.8321 29.3632 24.5267 29.0278 25.152C28.6923 25.7772 28.2162 26.316 27.6369 26.7257C26.7608 27.3873 25.7437 27.8375 24.665 28.041C24.5967 28.0618 24.5254 28.0705 24.4542 28.0669Z" fill="white"/>
</svg>
