<svg width="12" height="12" viewBox="0 0 12 12" fill="none" xmlns="http://www.w3.org/2000/svg">
<g clip-path="url(#clip0_354_5793)">
<path d="M10.8881 0.567659C10.5692 0.249187 10.1369 0.0703125 9.68613 0.0703125C9.2354 0.0703125 8.80309 0.249187 8.48412 0.567659L0.853596 8.19819C0.635082 8.41547 0.461824 8.67393 0.343846 8.95861C0.225867 9.24329 0.16551 9.54854 0.166267 9.85669V10.8199C0.166267 10.9443 0.215697 11.0637 0.303683 11.1516C0.391668 11.2396 0.511003 11.2891 0.635434 11.2891H1.59863C1.90676 11.2899 2.21201 11.2297 2.49669 11.1118C2.78138 10.9939 3.03985 10.8207 3.25714 10.6022L10.8881 2.9712C11.2065 2.65226 11.3852 2.22005 11.3852 1.76943C11.3852 1.31881 11.2065 0.886601 10.8881 0.567659V0.567659ZM2.59374 9.9388C2.32913 10.2016 1.9716 10.3496 1.59863 10.3507H1.1046V9.85669C1.10413 9.6718 1.14033 9.48864 1.21112 9.31783C1.28191 9.14702 1.38587 8.99195 1.517 8.86159L7.30792 3.07066L8.38701 4.14975L2.59374 9.9388ZM10.2243 2.3078L9.04853 3.484L7.96945 2.40726L9.14565 1.23106C9.2165 1.16036 9.30059 1.10431 9.3931 1.06611C9.48562 1.0279 9.58475 1.0083 9.68485 1.0084C9.78494 1.00851 9.88403 1.02834 9.97647 1.06674C10.0689 1.10515 10.1529 1.16138 10.2236 1.23223C10.2943 1.30309 10.3503 1.38717 10.3885 1.47969C10.4267 1.5722 10.4463 1.67134 10.4462 1.77143C10.4461 1.87153 10.4263 1.97062 10.3879 2.06305C10.3495 2.15548 10.2932 2.23944 10.2224 2.31014L10.2243 2.3078Z" fill="#07BC2E"/>
</g>
<defs>
<clipPath id="clip0_354_5793">
<rect width="11.26" height="11.26" fill="white" transform="translate(0.16626 0.0292969)"/>
</clipPath>
</defs>
</svg>
