<svg width="17" height="17" viewBox="0 0 17 17" fill="none" xmlns="http://www.w3.org/2000/svg">
<g clip-path="url(#clip0_138_4474)">
<path d="M14.2638 17C14.0017 16.9993 13.7424 16.9466 13.5009 16.8451C13.2593 16.7436 13.0402 16.5952 12.8563 16.4085L8.50007 12.0778L4.14382 16.4114C3.86405 16.6952 3.50525 16.8882 3.1142 16.9651C2.72314 17.0421 2.31798 16.9994 1.95153 16.8428C1.58143 16.6939 1.26483 16.4369 1.04306 16.1053C0.821288 15.7737 0.704659 15.383 0.7084 14.9841V3.54167C0.7084 2.60236 1.08154 1.70152 1.74573 1.03733C2.40992 0.373139 3.31076 0 4.25007 0L12.7501 0C13.2152 0 13.6757 0.0916079 14.1054 0.269593C14.5351 0.447579 14.9255 0.708456 15.2544 1.03733C15.5833 1.3662 15.8442 1.75663 16.0221 2.18633C16.2001 2.61602 16.2917 3.07657 16.2917 3.54167V14.9841C16.2957 15.3826 16.1795 15.7732 15.9582 16.1047C15.737 16.4363 15.421 16.6934 15.0514 16.8428C14.802 16.9471 14.5342 17.0005 14.2638 17ZM4.25007 1.41667C3.68648 1.41667 3.14598 1.64055 2.74747 2.03906C2.34895 2.43758 2.12507 2.97808 2.12507 3.54167V14.9841C2.12481 15.1021 2.15954 15.2176 2.22487 15.3159C2.2902 15.4142 2.3832 15.4909 2.49212 15.5364C2.60104 15.5819 2.72099 15.5941 2.83683 15.5714C2.95267 15.5487 3.05919 15.4923 3.14294 15.4091L8.00423 10.5775C8.13695 10.4456 8.31648 10.3716 8.50361 10.3716C8.69074 10.3716 8.87027 10.4456 9.00298 10.5775L13.8586 15.4077C13.9424 15.4908 14.0489 15.5473 14.1647 15.57C14.2806 15.5926 14.4005 15.5805 14.5094 15.535C14.6184 15.4895 14.7114 15.4128 14.7767 15.3145C14.842 15.2162 14.8767 15.1007 14.8765 14.9827V3.54167C14.8765 2.97808 14.6526 2.43758 14.2541 2.03906C13.8556 1.64055 13.3151 1.41667 12.7515 1.41667H4.25007Z" fill="#374957"/>
</g>
<defs>
<clipPath id="clip0_138_4474">
<rect width="17" height="17" fill="white"/>
</clipPath>
</defs>
</svg>
