<svg width="17" height="17" viewBox="0 0 17 17" fill="none" xmlns="http://www.w3.org/2000/svg">
<g clip-path="url(#clip0_655_5633)">
<path d="M16.7923 15.7913L12.5643 11.5633C13.7165 10.1541 14.2829 8.35602 14.1466 6.5409C14.0102 4.72577 13.1814 3.0325 11.8316 1.81132C10.4817 0.590151 8.71418 -0.0654954 6.89451 -0.0199979C5.07484 0.0254997 3.34226 0.76866 2.05516 2.05577C0.76805 3.34287 0.0248893 5.07545 -0.0206082 6.89512C-0.0661058 8.71479 0.589541 10.4823 1.81071 11.8322C3.03189 13.182 4.72516 14.0108 6.54029 14.1472C8.35541 14.2836 10.1535 13.7171 11.5627 12.5649L15.7907 16.7929C15.9243 16.9219 16.1032 16.9933 16.289 16.9917C16.4747 16.9901 16.6523 16.9156 16.7837 16.7843C16.915 16.653 16.9895 16.4753 16.9911 16.2896C16.9927 16.1039 16.9213 15.9249 16.7923 15.7913ZM7.08318 12.7505C5.96242 12.7505 4.86683 12.4181 3.93495 11.7955C3.00307 11.1728 2.27676 10.2878 1.84786 9.25233C1.41896 8.21688 1.30675 7.0775 1.5254 5.97828C1.74405 4.87905 2.28374 3.86935 3.07624 3.07685C3.86874 2.28435 4.87844 1.74466 5.97767 1.52601C7.07689 1.30736 8.21627 1.41958 9.25172 1.84847C10.2872 2.27737 11.1722 3.00368 11.7948 3.93556C12.4175 4.86744 12.7498 5.96303 12.7498 7.08379C12.7482 8.58617 12.1506 10.0265 11.0883 11.0889C10.0259 12.1512 8.58556 12.7488 7.08318 12.7505Z" fill="#A8A8A8" fill-opacity="0.82"/>
</g>
<defs>
<clipPath id="clip0_655_5633">
<rect width="17" height="17" fill="white"/>
</clipPath>
</defs>
</svg>
