<svg width="17" height="17" viewBox="0 0 17 17" fill="none" xmlns="http://www.w3.org/2000/svg">
<g clip-path="url(#clip0_138_4492)">
<path d="M16.1704 6.49627L13.4228 3.74864C13.2892 3.61961 13.1103 3.54822 12.9246 3.54983C12.7388 3.55145 12.5612 3.62594 12.4298 3.75727C12.2985 3.8886 12.224 4.06626 12.2224 4.25198C12.2208 4.43771 12.2922 4.61663 12.4212 4.75023L15.1688 7.49785C15.2505 7.5811 15.3218 7.67385 15.3813 7.7741C15.3707 7.7741 15.3622 7.76843 15.3516 7.76843L4.24209 7.7911C4.05422 7.7911 3.87406 7.86573 3.74122 7.99857C3.60838 8.1314 3.53375 8.31157 3.53375 8.49943C3.53375 8.6873 3.60838 8.86746 3.74122 9.0003C3.87406 9.13314 4.05422 9.20777 4.24209 9.20777L15.3473 9.1851C15.3672 9.1851 15.3835 9.17518 15.4026 9.17377C15.3398 9.29359 15.2601 9.40379 15.166 9.50102L12.4184 12.2486C12.3507 12.314 12.2968 12.3921 12.2596 12.4786C12.2225 12.565 12.203 12.6579 12.2022 12.752C12.2013 12.846 12.2193 12.9393 12.2549 13.0264C12.2905 13.1134 12.3431 13.1925 12.4096 13.259C12.4761 13.3255 12.5552 13.3781 12.6422 13.4137C12.7293 13.4493 12.8226 13.4673 12.9166 13.4664C13.0107 13.4656 13.1036 13.4461 13.19 13.409C13.2765 13.3718 13.3546 13.3179 13.42 13.2502L16.1676 10.5026C16.6988 9.97127 16.9971 9.25073 16.9971 8.49943C16.9971 7.74814 16.6988 7.0276 16.1676 6.49627H16.1704Z" fill="#374957"/>
<path d="M4.95833 15.5833H3.54167C2.97808 15.5833 2.43758 15.3595 2.03906 14.9609C1.64055 14.5624 1.41667 14.0219 1.41667 13.4583V3.54167C1.41667 2.97808 1.64055 2.43758 2.03906 2.03906C2.43758 1.64055 2.97808 1.41667 3.54167 1.41667H4.95833C5.14619 1.41667 5.32636 1.34204 5.4592 1.2092C5.59204 1.07636 5.66667 0.896195 5.66667 0.708333C5.66667 0.520472 5.59204 0.340304 5.4592 0.207466C5.32636 0.0746278 5.14619 0 4.95833 0L3.54167 0C2.6027 0.00112473 1.70252 0.374625 1.03857 1.03857C0.374625 1.70252 0.00112473 2.6027 0 3.54167L0 13.4583C0.00112473 14.3973 0.374625 15.2975 1.03857 15.9614C1.70252 16.6254 2.6027 16.9989 3.54167 17H4.95833C5.14619 17 5.32636 16.9254 5.4592 16.7925C5.59204 16.6597 5.66667 16.4795 5.66667 16.2917C5.66667 16.1038 5.59204 15.9236 5.4592 15.7908C5.32636 15.658 5.14619 15.5833 4.95833 15.5833Z" fill="#374957"/>
</g>
<defs>
<clipPath id="clip0_138_4492">
<rect width="17" height="17" fill="white"/>
</clipPath>
</defs>
</svg>
