<svg width="14" height="15" viewBox="0 0 14 15" fill="none" xmlns="http://www.w3.org/2000/svg">
<g clip-path="url(#clip0_365_6828)">
<path d="M14 13.9844C14 14.1392 13.9386 14.2875 13.8292 14.3969C13.7198 14.5063 13.5714 14.5678 13.4167 14.5678H0.583354C0.428644 14.5678 0.280271 14.5063 0.170875 14.3969C0.0614789 14.2875 2.07217e-05 14.1392 2.07217e-05 13.9844C2.07217e-05 13.8297 0.0614789 13.6814 0.170875 13.572C0.280271 13.4626 0.428644 13.4011 0.583354 13.4011H13.4167C13.5714 13.4011 13.7198 13.4626 13.8292 13.572C13.9386 13.6814 14 13.8297 14 13.9844ZM0.169771 5.55645C0.0440754 5.3233 -0.0141574 5.05974 0.00160764 4.79534C0.0173727 4.53094 0.106512 4.27617 0.259021 4.05961C0.508255 3.69393 0.84203 3.39377 1.23202 3.18461L5.6076 0.907281C6.03767 0.683649 6.51528 0.566895 7.00002 0.566895C7.48476 0.566895 7.96237 0.683649 8.39244 0.907281L12.7674 3.18636C13.1574 3.39552 13.4912 3.69568 13.7404 4.06136C13.8929 4.27792 13.9821 4.53269 13.9979 4.79709C14.0136 5.06149 13.9554 5.32505 13.8297 5.5582C13.6944 5.81418 13.4914 6.02813 13.2429 6.17676C12.9944 6.32538 12.7099 6.40298 12.4204 6.40111H12.25V11.0678H12.8334C12.9881 11.0678 13.1364 11.1292 13.2458 11.2386C13.3552 11.348 13.4167 11.4964 13.4167 11.6511C13.4167 11.8058 13.3552 11.9542 13.2458 12.0636C13.1364 12.173 12.9881 12.2344 12.8334 12.2344H1.16669C1.01198 12.2344 0.863605 12.173 0.754208 12.0636C0.644812 11.9542 0.583354 11.8058 0.583354 11.6511C0.583354 11.4964 0.644812 11.348 0.754208 11.2386C0.863605 11.1292 1.01198 11.0678 1.16669 11.0678H1.75002V6.40111H1.57969C1.28986 6.40292 1.00511 6.32511 0.756481 6.17616C0.507854 6.02721 0.304905 5.81285 0.169771 5.55645V5.55645ZM2.91669 11.0678H4.66669V6.40111H2.91669V11.0678ZM5.83335 6.40111V11.0678H8.16669V6.40111H5.83335ZM11.0834 6.40111H9.33335V11.0678H11.0834V6.40111ZM1.20344 5.0157C1.24004 5.08318 1.2945 5.13928 1.36087 5.17787C1.42723 5.21645 1.50294 5.23603 1.57969 5.23445H12.4204C12.4971 5.23603 12.5728 5.21645 12.6392 5.17787C12.7055 5.13928 12.76 5.08318 12.7966 5.0157C12.8233 4.97111 12.8362 4.91964 12.8337 4.86775C12.8312 4.81586 12.8134 4.76586 12.7826 4.72403C12.6413 4.51398 12.4514 4.3411 12.229 4.22003L7.85402 1.94095C7.59036 1.80411 7.29766 1.73268 7.0006 1.73268C6.70355 1.73268 6.41085 1.80411 6.14719 1.94095L1.77219 4.22003C1.54993 4.34149 1.36008 4.51453 1.2186 4.72461C1.18774 4.76627 1.16984 4.8161 1.16714 4.86787C1.16444 4.91964 1.17707 4.97106 1.20344 5.0157V5.0157Z" fill="#374957"/>
</g>
<defs>
<clipPath id="clip0_365_6828">
<rect width="14" height="14" fill="white" transform="translate(0 0.567871)"/>
</clipPath>
</defs>
</svg>
