<svg width="22" height="22" viewBox="0 0 22 22" fill="none" xmlns="http://www.w3.org/2000/svg">
<path d="M15.3821 19.2333H6.37935C3.09321 19.2333 1.20279 17.3429 1.20279 14.0567V7.75468C1.20279 4.46855 3.09321 2.57812 6.37935 2.57812H15.3821C18.6682 2.57812 20.5587 4.46855 20.5587 7.75468V14.0567C20.559 17.3429 18.6682 19.2333 15.3821 19.2333ZM6.37935 3.92848C3.80464 3.92848 2.55314 5.17997 2.55314 7.75468V14.0567C2.55314 16.6314 3.80464 17.8829 6.37935 17.8829H15.3821C17.9568 17.8829 19.2083 16.6314 19.2083 14.0567V7.75468C19.2083 5.17997 17.9568 3.92848 15.3821 3.92848H6.37935Z" fill="white"/>
<path d="M10.8802 11.689C10.1175 11.6988 9.37439 11.4478 8.77386 10.9776L5.95567 8.72619C5.88472 8.67185 5.82531 8.6039 5.78091 8.52634C5.73651 8.44877 5.70802 8.36313 5.69709 8.27442C5.68617 8.18572 5.69303 8.09572 5.71727 8.0097C5.74152 7.92367 5.78267 7.84334 5.83831 7.7734C5.89396 7.70346 5.96298 7.64531 6.04136 7.60235C6.11973 7.55938 6.20588 7.53247 6.29477 7.52318C6.38366 7.51388 6.47351 7.5224 6.55908 7.54823C6.64464 7.57405 6.7242 7.61667 6.7931 7.67359L9.6109 9.92419C9.97833 10.1918 10.4212 10.336 10.8758 10.336C11.3303 10.336 11.7732 10.1918 12.1406 9.92419L14.9588 7.67359C15.0275 7.61758 15.1068 7.57588 15.1919 7.55096C15.2769 7.52603 15.3661 7.51839 15.4542 7.52847C15.5423 7.53855 15.6275 7.56615 15.7047 7.60965C15.782 7.65315 15.8497 7.71167 15.904 7.78176C15.9599 7.85046 16.0015 7.92964 16.0264 8.01464C16.0512 8.09965 16.0588 8.18876 16.0488 8.27675C16.0387 8.36474 16.0111 8.44982 15.9677 8.52701C15.9243 8.60419 15.8658 8.67191 15.7959 8.72619L12.9781 10.9776C12.3815 11.449 11.6405 11.7003 10.8802 11.689Z" fill="white"/>
</svg>
