<svg width="14" height="14" viewBox="0 0 14 14" fill="none" xmlns="http://www.w3.org/2000/svg">
<path d="M7.29512 7.41861C6.6597 7.41861 6.03856 7.23018 5.51023 6.87716C4.9819 6.52415 4.57012 6.02239 4.32695 5.43534C4.08379 4.84829 4.02017 4.20232 4.14413 3.57911C4.26809 2.95591 4.57408 2.38346 5.02338 1.93415C5.47269 1.48484 6.04514 1.17886 6.66835 1.0549C7.29155 0.930934 7.93753 0.994556 8.52457 1.23772C9.11162 1.48088 9.61338 1.89266 9.9664 2.42099C10.3194 2.94932 10.5078 3.57047 10.5078 4.20589C10.5067 5.05761 10.1679 5.87412 9.56561 6.47638C8.96336 7.07864 8.14684 7.41748 7.29512 7.41861ZM7.29512 1.83114C6.82544 1.83114 6.36631 1.97042 5.97578 2.23136C5.58526 2.4923 5.28088 2.86318 5.10114 3.29711C4.9214 3.73104 4.87438 4.20852 4.96601 4.66917C5.05764 5.12983 5.28381 5.55297 5.61592 5.88508C5.94804 6.2172 6.37117 6.44337 6.83183 6.535C7.29248 6.62663 7.76997 6.5796 8.20389 6.39986C8.63782 6.22012 9.00871 5.91575 9.26965 5.52522C9.53059 5.1347 9.66986 4.67557 9.66986 4.20589C9.66849 3.57649 9.41785 2.97326 8.9728 2.5282C8.52775 2.08315 7.92452 1.83251 7.29512 1.83114Z" fill="#707070"/>
<path d="M12.0948 13.0063C11.9841 13.0049 11.8784 12.9602 11.8002 12.882C11.7219 12.8037 11.6773 12.698 11.6758 12.5873C11.6758 10.6599 9.70922 9.09576 7.29532 9.09576C4.88141 9.09576 2.9148 10.6604 2.9148 12.5873C2.91334 12.698 2.86872 12.8037 2.79046 12.882C2.7122 12.9602 2.60648 13.0049 2.49582 13.0063C2.38507 13.005 2.27923 12.9604 2.20086 12.8821C2.1225 12.8039 2.07782 12.6981 2.07635 12.5873C2.07635 10.2013 4.4176 8.25684 7.29484 8.25684C10.1721 8.25684 12.5133 10.2013 12.5133 12.5873C12.5119 12.6979 12.4673 12.8036 12.3892 12.8818C12.311 12.9601 12.2054 13.0047 12.0948 13.0063Z" fill="#707070"/>
</svg>
