<svg width="13" height="14" viewBox="0 0 13 14" fill="none" xmlns="http://www.w3.org/2000/svg">
<path d="M5.0383 9.40139H5.00307C4.51082 9.35357 4.05282 9.12815 3.71466 8.76725C3.32652 8.35134 3.11066 7.80364 3.11066 7.23475C3.11066 6.66586 3.32652 6.11816 3.71466 5.70225L4.81686 4.54469C5.00702 4.34135 5.23692 4.17924 5.49231 4.06841C5.74771 3.95758 6.02314 3.90039 6.30155 3.90039C6.57995 3.90039 6.85539 3.95758 7.11078 4.06841C7.36617 4.17924 7.59608 4.34135 7.78624 4.54469C8.17438 4.96061 8.39024 5.5083 8.39024 6.0772C8.39024 6.64609 8.17438 7.19379 7.78624 7.6097L7.23766 8.18848C7.20393 8.22571 7.16311 8.25584 7.11759 8.27709C7.07207 8.29834 7.02276 8.3103 6.97256 8.31225C6.92236 8.3142 6.87227 8.30611 6.82524 8.28845C6.7782 8.27079 6.73517 8.24392 6.69865 8.20942C6.66214 8.17491 6.63288 8.13347 6.61259 8.08751C6.5923 8.04155 6.58139 7.992 6.5805 7.94177C6.57961 7.89154 6.58875 7.84163 6.6074 7.79498C6.62604 7.74833 6.65381 7.70587 6.68908 7.67009L7.23766 7.09131C7.49476 6.81722 7.63785 6.45552 7.63785 6.07971C7.63785 5.70391 7.49476 5.3422 7.23766 5.06811C7.11499 4.94379 6.96885 4.84507 6.80772 4.7777C6.64659 4.71032 6.47368 4.67562 6.29903 4.67562C6.12438 4.67562 5.95147 4.71032 5.79034 4.7777C5.62921 4.84507 5.48307 4.94379 5.3604 5.06811L4.25821 6.22566C4.00111 6.49976 3.85802 6.86146 3.85802 7.23727C3.85802 7.61307 4.00111 7.97478 4.25821 8.24887C4.47213 8.47756 4.76191 8.62066 5.07353 8.6515C5.17285 8.66179 5.26407 8.71098 5.32725 8.7883C5.39043 8.86563 5.42044 8.96481 5.41073 9.06419C5.40194 9.15674 5.35885 9.24265 5.28994 9.30505C5.22102 9.36744 5.13127 9.40181 5.0383 9.40139Z" fill="#707070"/>
<path d="M7.61989 10.1005C7.34136 10.1013 7.06568 10.0445 6.81017 9.93361C6.55467 9.82275 6.32486 9.66022 6.13519 9.45625C5.74705 9.04034 5.53119 8.49264 5.53119 7.92375C5.53119 7.35485 5.74705 6.80716 6.13519 6.39124L6.68378 5.81246C6.7175 5.77523 6.75832 5.7451 6.80385 5.72385C6.84937 5.7026 6.89867 5.69064 6.94888 5.68869C6.99908 5.68674 7.04916 5.69483 7.0962 5.71249C7.14323 5.73015 7.18627 5.75702 7.22278 5.79152C7.2593 5.82603 7.28856 5.86747 7.30884 5.91343C7.32913 5.95939 7.34004 6.00894 7.34094 6.05917C7.34183 6.1094 7.33268 6.15931 7.31404 6.20596C7.29539 6.25261 7.26762 6.29507 7.23236 6.33085L6.68378 6.91214C6.42667 7.18624 6.28358 7.54794 6.28358 7.92375C6.28358 8.29955 6.42667 8.66125 6.68378 8.93535C6.80613 9.06022 6.95217 9.15943 7.11334 9.22715C7.27451 9.29488 7.44758 9.32976 7.6224 9.32976C7.79723 9.32976 7.97029 9.29488 8.13147 9.22715C8.29264 9.15943 8.43868 9.06022 8.56103 8.93535L9.66322 7.77779C9.92033 7.5037 10.0634 7.14199 10.0634 6.76619C10.0634 6.39039 9.92033 6.02868 9.66322 5.75459C9.4493 5.5259 9.15953 5.3828 8.8479 5.35196C8.74858 5.34166 8.65737 5.29248 8.59419 5.21516C8.53101 5.13783 8.50099 5.03865 8.5107 4.93926C8.51495 4.88975 8.52909 4.8416 8.55229 4.79765C8.57549 4.7537 8.60727 4.71485 8.64575 4.68341C8.68424 4.65197 8.72864 4.62857 8.77633 4.61459C8.82402 4.60062 8.87403 4.59636 8.92339 4.60206C9.41467 4.65143 9.87189 4.87557 10.2118 5.23369C10.5999 5.6496 10.8158 6.1973 10.8158 6.76619C10.8158 7.33508 10.5999 7.88278 10.2118 8.29869L9.10961 9.45625C8.91866 9.65993 8.68789 9.82221 8.43163 9.93302C8.17537 10.0438 7.89908 10.1008 7.61989 10.1005Z" fill="#707070"/>
<path d="M8.47065 12.4105H5.45094C2.7181 12.4105 1.55048 11.2429 1.55048 8.51001V5.4903C1.55048 2.75747 2.7181 1.58984 5.45094 1.58984H8.47065C11.2035 1.58984 12.3711 2.75747 12.3711 5.4903V8.51001C12.3711 11.2429 11.2035 12.4105 8.47065 12.4105ZM5.45094 2.34477C3.13079 2.34477 2.3054 3.17016 2.3054 5.4903V8.51001C2.3054 10.8302 3.13079 11.6555 5.45094 11.6555H8.47065C10.7908 11.6555 11.6162 10.8302 11.6162 8.51001V5.4903C11.6162 3.17016 10.7908 2.34477 8.47065 2.34477H5.45094Z" fill="#707070"/>
</svg>
