<svg width="12" height="12" viewBox="0 0 12 12" fill="none" xmlns="http://www.w3.org/2000/svg">
<g clip-path="url(#clip0_354_5790)">
<path d="M10.0597 1.90548H8.60526C8.49637 1.37598 8.20826 0.900214 7.7895 0.558366C7.37073 0.216518 6.84692 0.029491 6.30634 0.0288086L5.36801 0.0288086C4.82743 0.029491 4.30362 0.216518 3.88486 0.558366C3.46609 0.900214 3.17798 1.37598 3.06909 1.90548H1.61467C1.49024 1.90548 1.37091 1.95491 1.28292 2.04289C1.19494 2.13088 1.14551 2.25021 1.14551 2.37464C1.14551 2.49907 1.19494 2.61841 1.28292 2.70639C1.37091 2.79438 1.49024 2.84381 1.61467 2.84381H2.08384V8.94298C2.08459 9.5649 2.33198 10.1611 2.77174 10.6009C3.21151 11.0407 3.80775 11.2881 4.42968 11.2888H7.24468C7.8666 11.2881 8.46284 11.0407 8.90261 10.6009C9.34238 10.1611 9.58977 9.5649 9.59051 8.94298V2.84381H10.0597C10.1841 2.84381 10.3034 2.79438 10.3914 2.70639C10.4794 2.61841 10.5288 2.49907 10.5288 2.37464C10.5288 2.25021 10.4794 2.13088 10.3914 2.04289C10.3034 1.95491 10.1841 1.90548 10.0597 1.90548V1.90548ZM5.36801 0.967142H6.30634C6.59735 0.967497 6.88113 1.05787 7.11876 1.22586C7.35638 1.39385 7.53622 1.63124 7.63362 1.90548H4.04074C4.13813 1.63124 4.31797 1.39385 4.55559 1.22586C4.79322 1.05787 5.077 0.967497 5.36801 0.967142V0.967142ZM8.65218 8.94298C8.65218 9.31627 8.50389 9.67427 8.23993 9.93823C7.97597 10.2022 7.61797 10.3505 7.24468 10.3505H4.42968C4.05638 10.3505 3.69838 10.2022 3.43442 9.93823C3.17046 9.67427 3.02218 9.31627 3.02218 8.94298V2.84381H8.65218V8.94298Z" fill="url(#paint0_linear_354_5790)"/>
<path d="M4.89885 8.47354C5.02328 8.47354 5.14262 8.42411 5.2306 8.33613C5.31859 8.24814 5.36802 8.12881 5.36802 8.00438V5.18938C5.36802 5.06495 5.31859 4.94562 5.2306 4.85763C5.14262 4.76964 5.02328 4.72021 4.89885 4.72021C4.77442 4.72021 4.65509 4.76964 4.5671 4.85763C4.47912 4.94562 4.42969 5.06495 4.42969 5.18938V8.00438C4.42969 8.12881 4.47912 8.24814 4.5671 8.33613C4.65509 8.42411 4.77442 8.47354 4.89885 8.47354Z" fill="url(#paint1_linear_354_5790)"/>
<path d="M6.77557 8.47354C6.9 8.47354 7.01933 8.42411 7.10732 8.33613C7.19531 8.24814 7.24474 8.12881 7.24474 8.00438V5.18938C7.24474 5.06495 7.19531 4.94562 7.10732 4.85763C7.01933 4.76964 6.9 4.72021 6.77557 4.72021C6.65113 4.72021 6.5318 4.76964 6.44381 4.85763C6.35583 4.94562 6.3064 5.06495 6.3064 5.18938V8.00438C6.3064 8.12881 6.35583 8.24814 6.44381 8.33613C6.5318 8.42411 6.65113 8.47354 6.77557 8.47354Z" fill="url(#paint2_linear_354_5790)"/>
</g>
<defs>
<linearGradient id="paint0_linear_354_5790" x1="5.83718" y1="0.0288086" x2="5.83718" y2="11.2888" gradientUnits="userSpaceOnUse">
<stop stop-color="#F15E58"/>
<stop offset="1" stop-color="#FA463E"/>
</linearGradient>
<linearGradient id="paint1_linear_354_5790" x1="4.89885" y1="4.72021" x2="4.89885" y2="8.47354" gradientUnits="userSpaceOnUse">
<stop stop-color="#F15E58"/>
<stop offset="1" stop-color="#FA463E"/>
</linearGradient>
<linearGradient id="paint2_linear_354_5790" x1="6.77557" y1="4.72021" x2="6.77557" y2="8.47354" gradientUnits="userSpaceOnUse">
<stop stop-color="#F15E58"/>
<stop offset="1" stop-color="#FA463E"/>
</linearGradient>
<clipPath id="clip0_354_5790">
<rect width="11.26" height="11.26" fill="white" transform="translate(0.207275 0.0288086)"/>
</clipPath>
</defs>
</svg>
