<svg width="12" height="12" viewBox="0 0 12 12" fill="none" xmlns="http://www.w3.org/2000/svg">
<path d="M7.5 11.375H4.5C1.785 11.375 0.625 10.215 0.625 7.5V4.5C0.625 1.785 1.785 0.625 4.5 0.625H7.5C10.215 0.625 11.375 1.785 11.375 4.5V7.5C11.375 10.215 10.215 11.375 7.5 11.375ZM4.5 1.375C2.195 1.375 1.375 2.195 1.375 4.5V7.5C1.375 9.805 2.195 10.625 4.5 10.625H7.5C9.805 10.625 10.625 9.805 10.625 7.5V4.5C10.625 2.195 9.805 1.375 7.5 1.375H4.5Z" fill="#707070"/>
<path d="M10.7398 3.92969H1.25977C1.16031 3.92969 1.06493 3.89018 0.994601 3.81985C0.924274 3.74953 0.884766 3.65414 0.884766 3.55469C0.884766 3.45523 0.924274 3.35985 0.994601 3.28952C1.06493 3.2192 1.16031 3.17969 1.25977 3.17969H10.7398C10.8392 3.17969 10.9346 3.2192 11.0049 3.28952C11.0753 3.35985 11.1148 3.45523 11.1148 3.55469C11.1148 3.65414 11.0753 3.74953 11.0049 3.81985C10.9346 3.89018 10.8392 3.92969 10.7398 3.92969Z" fill="#707070"/>
<path d="M4.25977 3.85969C4.16051 3.85903 4.06551 3.81931 3.99532 3.74913C3.92514 3.67894 3.88542 3.58394 3.88477 3.48469V1.05469C3.88542 0.955434 3.92514 0.860431 3.99532 0.790246C4.06551 0.720062 4.16051 0.680343 4.25977 0.679688C4.35902 0.680343 4.45402 0.720062 4.52421 0.790246C4.59439 0.860431 4.63411 0.955434 4.63477 1.05469V3.48469C4.63411 3.58394 4.59439 3.67894 4.52421 3.74913C4.45402 3.81931 4.35902 3.85903 4.25977 3.85969Z" fill="#707070"/>
<path d="M7.74023 3.63469C7.64098 3.63403 7.54598 3.59431 7.47579 3.52413C7.40561 3.45394 7.36589 3.35894 7.36523 3.25969V1.05469C7.36589 0.955434 7.40561 0.860431 7.47579 0.790246C7.54598 0.720062 7.64098 0.680343 7.74023 0.679688C7.83949 0.680343 7.93449 0.720062 8.00468 0.790246C8.07486 0.860431 8.11458 0.955434 8.11523 1.05469V3.25969C8.1157 3.30906 8.10632 3.35804 8.08764 3.40374C8.06896 3.44945 8.04136 3.49098 8.00644 3.52589C7.97153 3.56081 7.93 3.58841 7.88429 3.60709C7.83858 3.62577 7.78961 3.63515 7.74023 3.63469Z" fill="#707070"/>
<path d="M5.54528 9.06043C5.36864 9.06069 5.19484 9.01595 5.04028 8.93043C4.86077 8.81028 4.71626 8.64476 4.62142 8.45068C4.52657 8.2566 4.48478 8.04088 4.50028 7.82543V6.62543C4.48456 6.40871 4.52675 6.1917 4.62251 5.99665C4.71828 5.8016 4.86419 5.63552 5.04528 5.51543C5.23911 5.4181 5.45554 5.37465 5.67191 5.3896C5.88829 5.40455 6.09668 5.47737 6.27528 5.60043L7.31528 6.20043C7.51094 6.29464 7.67798 6.43924 7.79924 6.61938C7.92051 6.79953 7.99163 7.00871 8.00528 7.22543C7.99156 7.44279 7.91987 7.6525 7.79764 7.83276C7.67542 8.01302 7.50713 8.15724 7.31028 8.25043L6.27028 8.85043C6.05139 8.98321 5.80125 9.05566 5.54528 9.06043ZM5.55028 6.13443C5.50509 6.13309 5.46032 6.14342 5.42028 6.16443C5.35651 6.22137 5.30766 6.29308 5.27802 6.37327C5.24839 6.45346 5.23886 6.5397 5.25028 6.62443V7.82443C5.23993 7.9091 5.24996 7.99502 5.27953 8.07503C5.3091 8.15505 5.35736 8.22684 5.42028 8.28443C5.50115 8.31056 5.58718 8.31648 5.67086 8.30166C5.75454 8.28684 5.83331 8.25174 5.90028 8.19943L6.94028 7.59943C7.13528 7.48443 7.25528 7.34443 7.25528 7.22443C7.25528 7.10443 7.14028 6.96443 6.94028 6.84943L5.90028 6.25043C5.79509 6.18324 5.67478 6.14337 5.55028 6.13443Z" fill="#707070"/>
</svg>
