<svg width="17" height="17" viewBox="0 0 17 17" fill="none" xmlns="http://www.w3.org/2000/svg">
<path fill-rule="evenodd" clip-rule="evenodd" d="M0.75 13.5782C0.75 11.226 2.24934 9.22393 4.34446 8.47571C4.9139 8.27231 5.52735 8.16154 6.16667 8.16154C6.80599 8.16154 7.41945 8.27231 7.98883 8.47571C8.29822 8.58612 8.59451 8.72397 8.875 8.8862C9.15549 8.72397 9.45179 8.58612 9.76117 8.47571C10.3305 8.27231 10.944 8.16154 11.5833 8.16154C12.2227 8.16154 12.8361 8.27231 13.4055 8.47571C15.5007 9.22393 17 11.226 17 13.5782V16.2865H12.2604V14.9324H15.6458V13.5782C15.6458 11.3345 13.827 9.51571 11.5833 9.51571C11.0443 9.51571 10.5298 9.6207 10.0591 9.81137C11.0027 10.7862 11.5833 12.1144 11.5833 13.5782V16.2865H0.75V13.5782ZM6.16667 7.48446C5.54469 7.48446 4.96189 7.31672 4.46103 7.02404C3.45626 6.43687 2.78125 5.34678 2.78125 4.09904C2.78125 2.22932 4.29695 0.713623 6.16667 0.713623C7.2741 0.713623 8.25732 1.24537 8.875 2.06746C9.49268 1.24537 10.4759 0.713623 11.5833 0.713623C13.4531 0.713623 14.9688 2.22932 14.9688 4.09904C14.9688 5.34678 14.2937 6.43687 13.289 7.02404C12.7881 7.31672 12.2053 7.48446 11.5833 7.48446C10.9613 7.48446 10.3786 7.31672 9.87772 7.02404C9.48672 6.79555 9.14574 6.49095 8.875 6.13061C8.60426 6.49104 8.26328 6.79555 7.87229 7.02404C7.37142 7.31672 6.78864 7.48446 6.16667 7.48446ZM10.2292 13.5782V14.9324H2.10417V13.5782C2.10417 11.3345 3.92301 9.51571 6.16667 9.51571C8.41034 9.51571 10.2292 11.3345 10.2292 13.5782ZM8.19792 4.09904C8.19792 5.22087 7.28846 6.13029 6.16667 6.13029C5.04484 6.13029 4.13542 5.22087 4.13542 4.09904C4.13542 2.97721 5.04484 2.06779 6.16667 2.06779C7.28846 2.06779 8.19792 2.97721 8.19792 4.09904ZM11.5833 2.06779C10.4615 2.06779 9.55208 2.97721 9.55208 4.09904C9.55208 5.22087 10.4615 6.13029 11.5833 6.13029C12.7051 6.13029 13.6146 5.22087 13.6146 4.09904C13.6146 2.97721 12.7051 2.06779 11.5833 2.06779Z" fill="#374957"/>
</svg>

